<?xml version="1.0" standalone="no"?>
<!DOCTYPE svg PUBLIC "-//W3C//DTD SVG 1.1//EN" "http://www.w3.org/Graphics/SVG/1.1/DTD/svg11.dtd" >
<svg xmlns="http://www.w3.org/2000/svg" xmlns:xlink="http://www.w3.org/1999/xlink" version="1.1">
<metadata>
Created by FontForge 20170910 at Fri May 27 22:26:52 2016
 By Jimmy Wärting
Schoolbook Style
</metadata>
<defs>
<font id="ProximaNovaT-Thin" horiz-adv-x="425" >
  <font-face 
    font-family="Proxima Nova Thin"
    font-weight="250"
    font-stretch="normal"
    units-per-em="2048"
    panose-1="2 11 2 3 3 5 2 6 2 4"
    ascent="1618"
    descent="-430"
    x-height="989"
    cap-height="1366"
    bbox="-111 -408 2169 1798"
    underline-thickness="40"
    underline-position="-271"
    unicode-range="U+000D-FB04"
  />
<missing-glyph horiz-adv-x="748" 
d="M68 0v1365h544v-1365h-544zM136 68h408v1229h-408v-1229z" />
    <glyph glyph-name="uniFB01" unicode="fi" horiz-adv-x="917" 
d="M41 934v55h164v105q0 138 65.5 215t182.5 77q71 0 116 -26l-26 -53q-43 24 -90 24q-93 0 -140 -61.5t-47 -175.5v-105h201v-55h-201v-934h-61v934h-164zM651 1219q0 24 18 41.5t42 17.5q25 0 42 -17t17 -42t-17 -42.5t-42 -17.5q-24 0 -42 18t-18 42zM680 0v989h61v-989
h-61z" />
    <glyph glyph-name="uniFB02" unicode="fl" horiz-adv-x="917" 
d="M41 934v55h164v105q0 138 65.5 215t182.5 77q71 0 116 -26l-26 -53q-43 24 -90 24q-93 0 -140 -61.5t-47 -175.5v-105h201v-55h-201v-934h-61v934h-164zM680 0v1366h61v-1366h-61z" />
    <glyph glyph-name="uniFB03" unicode="ffi" horiz-adv-x="1421" 
d="M41 934v55h164v105q0 138 65.5 215t182.5 77q71 0 116 -26l-26 -53q-43 24 -90 24q-93 0 -140 -61.5t-47 -175.5v-105h201v-55h-201v-934h-61v934h-164zM545 934v55h164v105q0 138 65 215t182 77q72 0 117 -26l-26 -53q-43 24 -91 24q-92 0 -139 -61.5t-47 -175.5v-105
h201v-55h-201v-934h-61v934h-164zM1155 1219q0 24 17.5 41.5t41.5 17.5q25 0 42.5 -17t17.5 -42t-17.5 -42.5t-42.5 -17.5q-24 0 -41.5 17.5t-17.5 42.5zM1184 0v989h61v-989h-61z" />
    <glyph glyph-name="uniFB04" unicode="ffl" horiz-adv-x="1421" 
d="M41 934v55h164v105q0 138 65.5 215t182.5 77q71 0 116 -26l-26 -53q-43 24 -90 24q-93 0 -140 -61.5t-47 -175.5v-105h201v-55h-201v-934h-61v934h-164zM545 934v55h164v105q0 138 65 215t182 77q72 0 117 -26l-26 -53q-43 24 -91 24q-92 0 -139 -61.5t-47 -175.5v-105
h201v-55h-201v-934h-61v934h-164zM1184 0v1366h61v-1366h-61z" />
    <glyph glyph-name=".notdef" horiz-adv-x="748" 
d="M68 0v1365h544v-1365h-544zM136 68h408v1229h-408v-1229z" />
    <glyph glyph-name="glyph1" horiz-adv-x="0" 
 />
    <glyph glyph-name="glyph2" horiz-adv-x="682" 
 />
    <glyph glyph-name="glyph3" horiz-adv-x="0" 
 />
    <glyph glyph-name="glyph3" horiz-adv-x="0" 
 />
    <glyph glyph-name="uni000D" unicode="&#xd;" horiz-adv-x="0" 
 />
    <glyph glyph-name="space" unicode=" " horiz-adv-x="532" 
 />
    <glyph glyph-name="exclam" unicode="!" 
d="M145 49q0 26 20 46t48 20t48 -20t20 -46q0 -28 -20 -47.5t-48 -19.5t-48 19.5t-20 47.5zM170 1366h86l-23 -1036h-40z" />
    <glyph glyph-name="quotedbl" unicode="&#x22;" horiz-adv-x="593" 
d="M127 1333q0 22 15 37.5t38 15.5t38 -15.5t15 -37.5l-30 -426h-45q-31 403 -31 426zM360 1333q0 22 15.5 37.5t38.5 15.5t38 -15.5t15 -37.5l-31 -426h-45q-31 403 -31 426z" />
    <glyph glyph-name="numbersign" unicode="#" horiz-adv-x="1161" 
d="M53 391l19 60h237l156 464h-240l17 60h243l129 391h68l-129 -391h254l129 391h68l-132 -391h236l-14 -60h-240l-158 -464h246l-18 -60h-246l-131 -391h-68l133 391h-256l-131 -391h-67l131 391h-236zM377 451h252l157 464h-254z" />
    <glyph glyph-name="dollar" unicode="$" horiz-adv-x="1177" 
d="M109 193l53 47q68 -83 170 -140t231 -63v651q-55 15 -88.5 25.5t-82.5 28.5t-78.5 35.5t-64 44t-53 57t-31.5 71.5t-13 90q0 155 119.5 249.5t291.5 99.5v184h66v-187q251 -14 393 -190l-51 -47q-124 160 -342 176v-584q53 -15 90.5 -27.5t85.5 -32.5t80.5 -40t66.5 -50
t54.5 -64.5t33.5 -80.5t13 -100q0 -47 -11.5 -93.5t-42 -95t-76.5 -86t-122 -63.5t-172 -31v-182h-66v180q-146 4 -263 63t-191 155zM223 1040q0 -50 19.5 -90.5t47 -67t77.5 -51t90 -38.5t106 -33v567q-144 -5 -242 -86t-98 -201zM629 37q80 5 143 27t101.5 53t63.5 72
t34.5 79t9.5 78q0 59 -20 106.5t-49.5 79t-80 59t-94 44t-108.5 35.5v-633z" />
    <glyph glyph-name="percent" unicode="%" horiz-adv-x="1452" 
d="M74 1051q0 145 88.5 240t224.5 95q137 0 225 -95t88 -240q0 -143 -88 -237.5t-225 -94.5q-136 0 -224.5 94.5t-88.5 237.5zM141 1051q0 -113 70 -195t176 -82q107 0 176.5 81.5t69.5 195.5q0 117 -69 198.5t-177 81.5q-107 0 -176.5 -82t-69.5 -198zM260 0l873 1366h75
l-874 -1366h-74zM752 307q0 145 88.5 240.5t224.5 95.5t224.5 -95.5t88.5 -240.5q0 -143 -88.5 -237.5t-224.5 -94.5t-224.5 94.5t-88.5 237.5zM819 307q0 -113 69 -194.5t177 -81.5t177 81.5t69 194.5q0 117 -69 199t-177 82t-177 -82t-69 -199z" />
    <glyph glyph-name="ampersand" unicode="&#x26;" horiz-adv-x="1304" 
d="M96 342q0 64 17.5 119.5t44.5 96.5t70.5 80.5t83.5 66t94 57.5q-119 185 -119 317q0 133 89 220t216 87q124 0 195 -64.5t71 -184.5q0 -41 -10.5 -78t-26.5 -66.5t-43.5 -59t-53 -50.5t-64 -46t-67.5 -42t-73 -41q-13 -7 -20 -11q74 -108 192 -235q108 -120 205 -217
q89 135 162 350l65 -25q-3 -8 -17.5 -46.5t-21 -54t-21 -51.5t-25.5 -58.5t-26 -53.5t-31.5 -58.5t-33.5 -53.5q128 -125 262 -240h-108q-77 66 -197 182q-164 -207 -407 -207q-173 0 -287.5 96.5t-114.5 270.5zM168 342q0 -74 27 -133t73.5 -96t105 -56.5t124.5 -19.5
q201 0 356 196q-156 159 -215 230q-120 134 -199 246q-61 -35 -104.5 -68t-84.5 -77.5t-62 -100t-21 -121.5zM358 1079q0 -117 107 -282q49 26 70.5 38t63.5 37.5t62 42t49 44.5t42 52.5t23.5 57t10.5 68.5q0 91 -53.5 139.5t-140.5 48.5q-97 0 -165.5 -69.5t-68.5 -176.5z
" />
    <glyph glyph-name="quotesingle" unicode="'" horiz-adv-x="360" 
d="M127 1333q0 22 15 37.5t38 15.5t38 -15.5t15 -37.5l-30 -426h-45q-31 403 -31 426z" />
    <glyph glyph-name="parenleft" unicode="(" horiz-adv-x="421" 
d="M96 498q0 482 258 905l33 -23q-110 -232 -164.5 -429t-54.5 -453q0 -255 54.5 -453.5t164.5 -427.5l-33 -25q-258 423 -258 906z" />
    <glyph glyph-name="parenright" unicode=")" horiz-adv-x="421" 
d="M35 -383q110 229 164.5 427.5t54.5 453.5q0 256 -54.5 453t-164.5 429l33 23q258 -423 258 -905q0 -483 -258 -906z" />
    <glyph glyph-name="asterisk" unicode="*" horiz-adv-x="675" 
d="M84 1001l217 111l-217 111l31 53l204 -133l-12 243h62l-13 -243l205 133l31 -53l-217 -111l217 -111l-31 -53l-205 133l13 -243h-62l12 243l-204 -133z" />
    <glyph glyph-name="plus" unicode="+" horiz-adv-x="1011" 
d="M59 659v62h414v442h66v-442h413v-62h-413v-454h-66v454h-414z" />
    <glyph glyph-name="comma" unicode="," 
d="M119 -205q49 36 78.5 89t29.5 100q-12 -2 -16 -2q-29 0 -47.5 19.5t-18.5 47.5q0 27 18.5 46.5t47.5 19.5q34 0 57 -29t23 -80q0 -73 -37.5 -142t-89.5 -106z" />
    <glyph glyph-name="hyphen" unicode="-" horiz-adv-x="614" 
d="M61 465v61h492v-61h-492z" />
    <glyph glyph-name="period" unicode="." 
d="M145 49q0 26 20 46t48 20t48 -20t20 -46q0 -28 -20 -47.5t-48 -19.5t-48 19.5t-20 47.5z" />
    <glyph glyph-name="slash" unicode="/" horiz-adv-x="548" 
d="M0 -41l485 1448h64l-486 -1448h-63z" />
    <glyph glyph-name="zero" unicode="0" horiz-adv-x="1239" 
d="M133 682q0 99 15.5 195t53 189.5t92 163.5t139 113t188.5 43q87 0 160 -30t125 -82.5t91.5 -120.5t62.5 -148t34.5 -160.5t11.5 -162.5t-11.5 -162t-34.5 -161t-62.5 -149t-91.5 -121.5t-125 -83.5t-160 -30q-104 0 -188.5 43.5t-139 114t-92 164.5t-53 190t-15.5 195z
M205 682q0 -75 9 -148.5t28.5 -147t52.5 -135.5t77.5 -110.5t108.5 -76t140 -27.5t139 27.5t107.5 76t77.5 110.5t52 136t28 147t9 148q0 92 -12.5 179t-42.5 172.5t-76 149t-118.5 103t-163.5 39.5t-164 -39.5t-119 -103t-77 -149t-43.5 -172.5t-12.5 -179z" />
    <glyph glyph-name="one" unicode="1" horiz-adv-x="567" 
d="M61 1083l265 283h61v-1366h-65v1272l-216 -236z" />
    <glyph glyph-name="two" unicode="2" horiz-adv-x="1181" 
d="M121 0v57q88 73 143 119.5t132 113t125 112.5t108.5 106.5t97.5 107t76.5 101.5t61 102t35 98t13.5 99q0 79 -30 140.5t-80 97t-108.5 53.5t-121.5 18q-127 0 -224.5 -49.5t-151.5 -134.5l-54 39q64 96 177 151t255 55q69 0 137 -20.5t129.5 -62.5t99.5 -116.5t38 -170.5
q0 -93 -44.5 -193t-102 -180t-176 -195t-199.5 -185t-240 -202h766v-61h-862z" />
    <glyph glyph-name="three" unicode="3" horiz-adv-x="1087" 
d="M74 205l57 33q56 -91 154 -146t231 -55q170 0 270.5 87t100.5 238q0 81 -32 143t-87.5 98.5t-125 54.5t-150.5 18q-95 0 -115 -2v65q20 -2 115 -2q100 0 182 29t137 97t55 167q0 136 -102 215.5t-248 79.5q-119 0 -206.5 -45t-166.5 -139l-51 41q72 92 181 148t243 56
q109 0 202 -39.5t153.5 -122.5t60.5 -194q0 -63 -20.5 -116.5t-51 -88t-71.5 -60.5t-77 -39t-71 -19q36 -3 76 -17t82.5 -42t76 -66.5t55 -95.5t21.5 -124q0 -171 -116 -279t-320 -108q-153 0 -268.5 65t-173.5 165z" />
    <glyph glyph-name="four" unicode="4" horiz-adv-x="1073" 
d="M78 399v68l624 899h86v-905h207v-62h-207v-399h-65v399h-645zM150 461h573v831z" />
    <glyph glyph-name="five" unicode="5" horiz-adv-x="1175" 
d="M166 205l53 39q69 -104 161.5 -155.5t227.5 -51.5q157 0 263 105.5t106 263.5q0 170 -104.5 271t-264.5 101q-194 0 -344 -141l-55 33v696h745v-61h-680v-596q57 56 144.5 93.5t189.5 37.5q86 0 163.5 -28t138.5 -81t96.5 -137t35.5 -188q0 -97 -36 -179t-96 -136.5
t-138.5 -85t-163.5 -30.5q-161 0 -266 59.5t-176 170.5z" />
    <glyph glyph-name="six" unicode="6" horiz-adv-x="1181" 
d="M133 682q0 104 15 201t51.5 190t91 161.5t139.5 110t191 41.5q128 0 212 -47.5t146 -136.5l-49 -43q-56 80 -127 123t-182 43q-93 0 -167 -39.5t-121 -103.5t-78 -152t-43.5 -178.5t-12.5 -189.5q0 -49 2 -74q22 38 61 78t92 78t122.5 62.5t139.5 24.5q193 0 313 -110
t120 -320q0 -80 -29 -155t-83 -136t-139.5 -98t-189.5 -37q-103 0 -185 39.5t-135.5 105.5t-89 158t-50.5 192t-15 212zM209 504q6 -65 21.5 -127t47.5 -125t75.5 -109.5t109 -76t145.5 -29.5q92 0 166 33.5t118 88t67.5 117t23.5 125.5q0 180 -101 274.5t-268 94.5
q-121 0 -231.5 -74t-173.5 -192z" />
    <glyph glyph-name="seven" unicode="7" horiz-adv-x="1001" 
d="M74 1305v61h854v-45l-604 -1321h-74l600 1305h-776z" />
    <glyph glyph-name="eight" unicode="8" horiz-adv-x="1148" 
d="M135 338q0 72 30 134.5t81.5 107.5t112.5 76t130 49q-65 15 -121.5 42.5t-105 67.5t-76.5 97t-28 124q0 86 36 154.5t96 110t133 63.5t152 22q78 0 150.5 -22t133.5 -63.5t97.5 -110t36.5 -154.5q0 -67 -28 -124t-76.5 -97t-105 -67.5t-121.5 -42.5q69 -18 130 -49
t111.5 -76t80.5 -107.5t30 -134.5q0 -158 -124 -260.5t-315 -102.5q-194 0 -317 101.5t-123 261.5zM201 338q0 -91 53 -160.5t137.5 -105t183.5 -35.5q150 0 261.5 83t111.5 218q0 56 -21.5 106t-57 84.5t-77 62.5t-85 45.5t-76.5 27t-56 12.5q-30 -4 -71.5 -16t-96 -39.5
t-99.5 -64t-76 -94t-31 -124.5zM223 1036q0 -52 19.5 -96.5t54 -75.5t71 -54.5t80.5 -38.5t71.5 -23t55.5 -13q35 7 70 16.5t89.5 33.5t94.5 55t69.5 82.5t29.5 113.5q0 132 -102.5 210.5t-250.5 78.5q-150 0 -251 -78.5t-101 -210.5z" />
    <glyph glyph-name="nine" unicode="9" horiz-adv-x="1181" 
d="M133 963q0 80 29 155t82.5 136t139 98t189.5 37q103 0 185 -39.5t135.5 -105.5t89.5 -158t51 -192t15 -212q0 -104 -15 -201t-51.5 -190t-91 -161.5t-139.5 -110.5t-191 -42q-128 0 -212 47.5t-146 137.5l49 43q56 -80 127 -123t182 -43q93 0 167 39.5t121 103.5t78 152
t43.5 178.5t12.5 189.5q0 49 -2 74q-31 -52 -87.5 -105t-146.5 -96t-182 -43q-193 0 -312.5 110.5t-119.5 320.5zM199 963q0 -180 100.5 -274.5t267.5 -94.5q121 0 232 74.5t174 191.5q-6 65 -22 127t-47.5 125t-75 109.5t-109.5 76t-146 29.5q-74 0 -137 -22.5t-105.5 -59
t-73 -84.5t-44.5 -98t-14 -100z" />
    <glyph glyph-name="colon" unicode=":" 
d="M145 49q0 26 20 46t48 20t48 -20t20 -46q0 -28 -20 -47.5t-48 -19.5t-48 19.5t-20 47.5zM145 936q0 28 20 48t48 20t48 -20t20 -48q0 -26 -20 -46t-48 -20t-48 20t-20 46z" />
    <glyph glyph-name="semicolon" unicode=";" 
d="M119 -205q49 36 78.5 89t29.5 100q-12 -2 -16 -2q-29 0 -47.5 19.5t-18.5 47.5q0 27 18.5 46.5t47.5 19.5q34 0 57 -29t23 -80q0 -73 -37.5 -142t-89.5 -106zM145 936q0 28 20 48t48 20t48 -20t20 -48q0 -26 -20 -46t-48 -20t-48 20t-20 46z" />
    <glyph glyph-name="less" unicode="&#x3c;" horiz-adv-x="1011" 
d="M59 664v43l893 481v-74l-809 -430l809 -426v-74z" />
    <glyph glyph-name="equal" unicode="=" horiz-adv-x="1011" 
d="M59 451v61h893v-61h-893zM59 856v62h893v-62h-893z" />
    <glyph glyph-name="greater" unicode="&#x3e;" horiz-adv-x="1011" 
d="M59 184v74l809 426l-809 430v74l893 -481v-43z" />
    <glyph glyph-name="question" unicode="?" horiz-adv-x="956" 
d="M53 1167q153 219 439 219q173 0 276.5 -91.5t103.5 -221.5q0 -50 -15.5 -94.5t-36 -75.5t-58.5 -66t-64 -54t-73 -50q-42 -29 -60 -41.5t-50 -39t-45.5 -46t-25.5 -48t-12 -58.5q0 -25 18 -56t50 -53l-39 -47q-90 67 -90 156q0 40 13.5 76t29 60t51.5 55.5t54.5 45
t64.5 45.5q43 29 65.5 45.5t56.5 47t51 56.5t30.5 63.5t13.5 78.5q0 107 -82 179.5t-227 72.5q-140 0 -231 -51t-161 -150zM387 49q0 26 20 46t48 20q27 0 47 -19.5t20 -46.5q0 -28 -19.5 -47.5t-47.5 -19.5t-48 19.5t-20 47.5z" />
    <glyph glyph-name="at" unicode="@" horiz-adv-x="1603" 
d="M72 500q0 163 67.5 313.5t179 258t260.5 171.5t306 64q141 0 262 -52t204.5 -142t131 -213.5t47.5 -262.5q0 -216 -89 -339.5t-220 -123.5q-79 0 -128 53t-49 127v13q-59 -82 -152.5 -137.5t-197.5 -55.5q-139 0 -225 88t-86 236q0 108 43.5 207t113.5 168t160 110
t181 41q100 0 169 -50.5t99 -127.5l29 141h61l-127 -602q-2 -12 -2 -37q0 -54 32.5 -86.5t78.5 -32.5q27 0 57 11t65 40.5t62.5 73.5t46 118.5t18.5 166.5q0 171 -74 309t-209.5 217.5t-307.5 79.5q-148 0 -286 -62.5t-238.5 -164.5t-161 -238t-60.5 -278q0 -164 76 -298
t213 -211t307 -77q199 0 385 117l33 -47q-200 -129 -426 -129q-183 0 -332 85t-233 232t-84 326zM451 498q0 -119 64.5 -194t178.5 -75q115 0 210 67t159 161l70 321q-23 73 -87.5 132t-164.5 59q-115 0 -215.5 -68t-157.5 -176.5t-57 -226.5z" />
    <glyph glyph-name="A" unicode="A" horiz-adv-x="1302" 
d="M43 0l569 1366h78l570 -1366h-76l-152 367h-762l-151 -367h-76zM295 428h713l-357 862z" />
    <glyph glyph-name="B" unicode="B" horiz-adv-x="1228" 
d="M180 0v1366h514q168 0 270.5 -91.5t102.5 -256.5q0 -122 -72 -207.5t-170 -105.5q109 -17 189 -117t80 -219q0 -173 -105.5 -271t-286.5 -98h-522zM246 61h456q150 0 235 82.5t85 223.5q0 126 -84.5 215.5t-235.5 89.5h-456v-611zM246 733h448q145 0 223 80t78 205
q0 124 -78.5 205.5t-222.5 81.5h-448v-572z" />
    <glyph glyph-name="C" unicode="C" horiz-adv-x="1366" 
d="M133 682q0 154 53.5 287t145 224.5t217 143.5t266.5 52q288 0 475 -215l-51 -46q-73 92 -185.5 145.5t-238.5 53.5q-127 0 -239.5 -47t-194 -130.5t-129 -204.5t-47.5 -263q0 -140 47.5 -261t129 -205t194 -131.5t239.5 -47.5q126 0 238.5 53.5t185.5 145.5l53 -43
q-194 -218 -477 -218q-141 0 -266.5 52t-217 143.5t-145 224.5t-53.5 287z" />
    <glyph glyph-name="D" unicode="D" horiz-adv-x="1400" 
d="M180 0v1366h406q155 0 284.5 -55.5t215 -149.5t133 -218t47.5 -261q0 -139 -47.5 -262.5t-133 -217t-215 -148t-284.5 -54.5h-406zM246 61h340q142 0 258 48.5t192 132.5t117 197t41 243q0 103 -25.5 196t-77 171t-124 135t-170 89t-211.5 32h-340v-1244z" />
    <glyph glyph-name="E" unicode="E" horiz-adv-x="1142" 
d="M180 0v1366h836v-61h-770v-572h755v-61h-755v-611h770v-61h-836z" />
    <glyph glyph-name="F" unicode="F" horiz-adv-x="1091" 
d="M180 0v1366h836v-61h-770v-572h755v-61h-755v-672h-66z" />
    <glyph glyph-name="G" unicode="G" horiz-adv-x="1449" 
d="M133 682q0 154 53.5 287t145 224.5t217 143.5t266.5 52q295 0 500 -211l-43 -45q-80 91 -200.5 142.5t-256.5 51.5q-127 0 -239.5 -47t-194 -130.5t-129 -204.5t-47.5 -263q0 -140 47.5 -261.5t129 -205.5t194 -132t239.5 -48q137 0 250 54.5t184 129.5v375h-563v61h629
v-462q-91 -102 -221 -161t-279 -59q-141 0 -266.5 52.5t-217 144t-145 225t-53.5 287.5z" />
    <glyph glyph-name="H" unicode="H" horiz-adv-x="1423" 
d="M180 0v1366h66v-633h932v633h65v-1366h-65v672h-932v-672h-66z" />
    <glyph glyph-name="I" unicode="I" 
d="M180 0v1366h66v-1366h-66z" />
    <glyph glyph-name="J" unicode="J" horiz-adv-x="952" 
d="M33 154l55 49q116 -166 291 -166q150 0 239 94.5t89 247.5v987h65v-987q0 -99 -31.5 -177.5t-86 -127t-125 -74t-150.5 -25.5q-112 0 -196 43.5t-150 135.5z" />
    <glyph glyph-name="K" unicode="K" horiz-adv-x="1169" 
d="M180 0v1366h66v-788l710 788h88l-593 -653l655 -713h-88l-608 672l-164 -178v-494h-66z" />
    <glyph glyph-name="L" unicode="L" horiz-adv-x="1021" 
d="M180 0v1366h66v-1305h686v-61h-752z" />
    <glyph glyph-name="M" unicode="M" horiz-adv-x="1576" 
d="M180 0v1366h105l503 -1223l504 1223h105v-1366h-66v1288l-532 -1288h-21l-532 1288v-1288h-66z" />
    <glyph glyph-name="N" unicode="N" horiz-adv-x="1413" 
d="M180 0v1366h66l921 -1247v1247h66v-1366h-66l-921 1260v-1260h-66z" />
    <glyph glyph-name="O" unicode="O" horiz-adv-x="1564" 
d="M133 682q0 198 78.5 358t227.5 254.5t343 94.5q193 0 342.5 -94.5t228.5 -255t79 -357.5t-79 -357.5t-228.5 -255t-342.5 -94.5q-194 0 -343 94.5t-227.5 254.5t-78.5 358zM205 682q0 -185 69.5 -331t201.5 -230t306 -84q172 0 304 84t203 230t71 331q0 187 -71 333
t-203 229t-304 83q-174 0 -306 -83t-201.5 -229t-69.5 -333z" />
    <glyph glyph-name="P" unicode="P" horiz-adv-x="1136" 
d="M180 0v1366h473q184 0 292 -112t108 -275q0 -106 -47 -193t-139.5 -140.5t-213.5 -53.5h-407v-592h-66zM246 653h405q149 0 239.5 91.5t90.5 234.5t-90.5 234.5t-239.5 91.5h-405v-652z" />
    <glyph glyph-name="Q" unicode="Q" horiz-adv-x="1564" 
d="M133 682q0 198 78.5 358t227.5 254.5t343 94.5q193 0 342.5 -94.5t228.5 -255t79 -357.5q0 -157 -52.5 -292.5t-148.5 -233.5l158 -156l-46 -47l-159 160q-170 -138 -402 -138q-194 0 -343 94.5t-227.5 254.5t-78.5 358zM205 682q0 -185 69.5 -331t201.5 -230t306 -84
q205 0 355 121l-226 227l47 47l228 -229q84 87 129 209.5t45 269.5q0 187 -71 333t-203 229t-304 83q-174 0 -306 -83t-201.5 -229t-69.5 -333z" />
    <glyph glyph-name="R" unicode="R" horiz-adv-x="1185" 
d="M180 0v1366h471q173 0 288.5 -103t115.5 -284t-115.5 -285t-288.5 -104l422 -590h-84l-416 590h-327v-590h-66zM246 651h405q149 0 240.5 92.5t91.5 235.5t-91.5 234.5t-240.5 91.5h-405v-654z" />
    <glyph glyph-name="S" unicode="S" horiz-adv-x="1177" 
d="M109 193l53 47q72 -87 180 -145t244 -58q112 0 193.5 29.5t123 77.5t60 98t18.5 104q0 46 -12.5 85.5t-30.5 68t-51.5 54.5t-62.5 42.5t-77 34.5t-80 28t-87 25q-179 50 -252 87q-156 80 -173 226q-3 21 -3 43q0 107 60.5 188t157 121t210.5 40q286 0 442 -193l-51 -47
q-137 178 -391 178q-151 0 -254 -81t-103 -206q0 -30 7.5 -56.5t17.5 -47.5t31 -41t37.5 -33.5t48 -28.5t51.5 -24t60 -21.5t61 -19t65 -18.5q46 -13 73.5 -21.5t71 -23.5t70.5 -28t62.5 -32.5t58 -39.5t46.5 -48t37.5 -58.5t22.5 -69.5t9 -83q0 -50 -12.5 -98t-46 -98.5
t-84.5 -88.5t-134.5 -62t-189.5 -24q-153 0 -276 59.5t-201 158.5z" />
    <glyph glyph-name="T" unicode="T" horiz-adv-x="1144" 
d="M78 1305v61h989v-61h-463v-1305h-65v1305h-461z" />
    <glyph glyph-name="U" unicode="U" horiz-adv-x="1376" 
d="M180 518v848h66v-848q0 -229 114 -355t328 -126t328 126t114 355v848h66v-848q0 -257 -131 -400t-377 -143t-377 143.5t-131 399.5z" />
    <glyph glyph-name="V" unicode="V" horiz-adv-x="1302" 
d="M43 1366h76l532 -1290l533 1290h76l-570 -1366h-78z" />
    <glyph glyph-name="W" unicode="W" horiz-adv-x="1744" 
d="M51 1366h72l356 -1268l359 1268h69l359 -1268l356 1268h72l-389 -1366h-78l-355 1243l-354 -1243h-78z" />
    <glyph glyph-name="X" unicode="X" horiz-adv-x="1306" 
d="M51 0l565 700l-534 666h88l483 -612l484 612h88l-535 -664l565 -702h-86l-516 651l-516 -651h-86z" />
    <glyph glyph-name="Y" unicode="Y" horiz-adv-x="1249" 
d="M43 1366h84l498 -709l497 709h84l-549 -774v-592h-65v592z" />
    <glyph glyph-name="Z" unicode="Z" horiz-adv-x="1183" 
d="M109 0v61l874 1244h-874v61h952v-61l-877 -1244h891v-61h-966z" />
    <glyph glyph-name="bracketleft" unicode="[" horiz-adv-x="434" 
d="M70 -389v1778h329v-62h-268v-1655h268v-61h-329z" />
    <glyph glyph-name="backslash" unicode="\" horiz-adv-x="548" 
d="M0 1407h63l486 -1448h-64z" />
    <glyph glyph-name="bracketright" unicode="]" horiz-adv-x="434" 
d="M35 -328h268v1655h-268v62h330v-1778h-330v61z" />
    <glyph glyph-name="asciicircum" unicode="^" horiz-adv-x="868" 
d="M39 682l369 684h53l368 -684h-69l-326 629l-325 -629h-70z" />
    <glyph glyph-name="underscore" unicode="_" horiz-adv-x="1155" 
d="M-6 -82h1167v-61h-1167v61z" />
    <glyph glyph-name="grave" unicode="`" horiz-adv-x="419" 
d="M0 1434h92l328 -295h-62z" />
    <glyph glyph-name="a" unicode="a" horiz-adv-x="1052" 
d="M127 305q0 151 103 240.5t243 89.5q208 0 342 -146v224q0 116 -79.5 180.5t-198.5 64.5q-98 0 -174 -36.5t-144 -118.5l-47 41q75 88 159.5 129t205.5 41q153 0 246.5 -76.5t93.5 -222.5v-715h-62v121q-134 -146 -342 -146q-89 0 -166.5 37.5t-128.5 114.5t-51 178z
M195 305q0 -118 81 -196t213 -78q99 0 184.5 38.5t141.5 112.5v246q-56 74 -141.5 113t-184.5 39q-132 0 -213 -78.5t-81 -196.5z" />
    <glyph glyph-name="b" unicode="b" horiz-adv-x="1159" 
d="M176 0v1366h62v-547q61 90 154.5 142.5t201.5 52.5q199 0 320.5 -143t121.5 -377q0 -235 -121 -377t-321 -142q-111 0 -206 54.5t-150 136.5v-166h-62zM238 227q48 -82 146.5 -139t209.5 -57q176 0 275.5 130.5t99.5 332.5t-99.5 333t-275.5 131q-110 0 -209 -58.5
t-147 -141.5v-531z" />
    <glyph glyph-name="c" unicode="c" horiz-adv-x="1009" 
d="M123 496q0 143 56 260t163.5 187.5t247.5 70.5q115 0 192.5 -41t145.5 -125l-45 -37q-58 79 -128.5 113t-160.5 34q-124 0 -216.5 -62t-140 -166t-47.5 -234q0 -200 109.5 -332.5t294.5 -132.5q180 0 289 149l45 -39q-68 -84 -145.5 -125t-192.5 -41q-140 0 -247.5 71
t-163.5 189t-56 261z" />
    <glyph glyph-name="d" unicode="d" horiz-adv-x="1159" 
d="M123 494q0 234 121.5 377t320.5 143q108 0 202 -52.5t155 -142.5v547h61v-1366h-61v166q-54 -82 -150 -136.5t-207 -54.5q-200 0 -321 142t-121 377zM190 494q0 -202 99.5 -332.5t275.5 -130.5q111 0 210 57t147 139v531q-48 83 -147 141.5t-210 58.5q-176 0 -275.5 -131
t-99.5 -333z" />
    <glyph glyph-name="e" unicode="e" horiz-adv-x="1169" 
d="M123 496q0 142 60 260.5t167.5 188t237.5 69.5q110 0 199 -42t145 -114.5t85.5 -165t29.5 -196.5v-21h-854q3 -122 53 -222t145 -161t217 -61q204 0 344 149l37 -39q-79 -82 -170 -124t-211 -42q-214 0 -349.5 147t-135.5 374zM193 530h788q0 58 -15 117.5t-47 115.5
t-77 99t-111.5 69.5t-144.5 26.5q-74 0 -137.5 -26t-109 -68.5t-78.5 -98.5t-49.5 -115.5t-18.5 -119.5z" />
    <glyph glyph-name="f" unicode="f" horiz-adv-x="503" 
d="M41 934v55h164v105q0 138 65.5 215t182.5 77q71 0 116 -26l-26 -53q-43 24 -90 24q-93 0 -140 -61.5t-47 -175.5v-105h201v-55h-201v-934h-61v934h-164z" />
    <glyph glyph-name="g" unicode="g" horiz-adv-x="1159" 
d="M123 492q0 234 121.5 378t320.5 144q108 0 202 -52.5t155 -142.5v170h61v-995q0 -202 -113 -298.5t-305 -96.5q-130 0 -213 30.5t-166 118.5l45 51q64 -79 140.5 -112t193.5 -33q158 0 257.5 84.5t99.5 255.5v172q-55 -83 -150.5 -139t-206.5 -56q-199 0 -320.5 143
t-121.5 378zM190 492q0 -202 99.5 -333.5t275.5 -131.5q111 0 210 58.5t147 141.5v531q-48 83 -147 141.5t-210 58.5q-118 0 -204 -63t-128.5 -167t-42.5 -236z" />
    <glyph glyph-name="h" unicode="h" horiz-adv-x="1081" 
d="M176 0v1366h62v-532q60 73 160.5 126.5t197.5 53.5q153 0 231 -75.5t78 -244.5v-694h-61v694q0 147 -65.5 205.5t-190.5 58.5q-98 0 -196.5 -54.5t-153.5 -131.5v-772h-62z" />
    <glyph glyph-name="i" unicode="i" horiz-adv-x="413" 
d="M147 1219q0 24 18 41.5t42 17.5q25 0 42 -17t17 -42t-17 -42.5t-42 -17.5q-24 0 -42 18t-18 42zM176 0v989h62v-989h-62z" />
    <glyph glyph-name="j" unicode="j" horiz-adv-x="413" 
d="M-111 -381l21 55q40 -18 92 -18q174 0 174 188v1145h62v-1145q0 -123 -63 -184t-173 -61q-63 0 -113 20zM147 1219q0 24 18 41.5t42 17.5q25 0 42 -17t17 -42t-17 -42.5t-42 -17.5q-24 0 -42 18t-18 42z" />
    <glyph glyph-name="k" unicode="k" horiz-adv-x="1015" 
d="M176 0v1366h62v-979l645 602h88l-482 -446l476 -543h-88l-435 498l-204 -189v-309h-62z" />
    <glyph glyph-name="l" unicode="l" horiz-adv-x="413" 
d="M176 0v1366h62v-1366h-62z" />
    <glyph glyph-name="m" unicode="m" horiz-adv-x="1576" 
d="M176 0v989h62v-155q38 60 129.5 120t187.5 60q109 0 174 -55.5t82 -133.5q45 74 137 131.5t189 57.5q264 0 264 -301v-713h-62v713q0 245 -213 245q-82 0 -171.5 -54t-135.5 -130v-774h-61v713q0 245 -213 245q-81 0 -168.5 -54.5t-138.5 -131.5v-772h-62z" />
    <glyph glyph-name="n" unicode="n" horiz-adv-x="1081" 
d="M176 0v989h62v-155q60 73 160.5 126.5t197.5 53.5q153 0 231 -77t78 -247v-690h-61v690q0 147 -66 207.5t-190 60.5q-98 0 -196.5 -54.5t-153.5 -131.5v-772h-62z" />
    <glyph glyph-name="o" unicode="o" horiz-adv-x="1167" 
d="M123 496q0 145 56.5 262.5t162.5 186.5t242 69q137 0 243 -69t161.5 -186t55.5 -263t-55.5 -264t-161.5 -187.5t-243 -69.5q-136 0 -242 69.5t-162.5 188t-56.5 263.5zM190 496q0 -123 45 -227.5t136.5 -171t212.5 -66.5q92 0 168 38.5t124.5 103.5t74.5 148t26 175
q0 91 -26 173.5t-74.5 147t-124.5 103t-168 38.5q-121 0 -212.5 -66t-136.5 -170t-45 -226z" />
    <glyph glyph-name="p" unicode="p" horiz-adv-x="1150" 
d="M176 -377v1366h62v-166q55 82 150 136.5t206 54.5q200 0 321 -141.5t121 -376.5q0 -234 -121.5 -377.5t-320.5 -143.5q-108 0 -201.5 52.5t-154.5 142.5v-547h-62zM238 231q48 -83 147 -141.5t209 -58.5q176 0 275.5 131.5t99.5 333.5t-99.5 332t-275.5 130
q-111 0 -209.5 -57t-146.5 -139v-531z" />
    <glyph glyph-name="q" unicode="q" horiz-adv-x="1150" 
d="M115 496q0 235 121 376.5t321 141.5q111 0 206 -54.5t150 -136.5v166h62v-1366h-62v547q-61 -90 -154.5 -142.5t-201.5 -52.5q-199 0 -320.5 143.5t-121.5 377.5zM182 496q0 -202 99.5 -333.5t275.5 -131.5q110 0 209 58.5t147 141.5v531q-48 82 -146.5 139t-209.5 57
q-176 0 -275.5 -130t-99.5 -332z" />
    <glyph glyph-name="r" unicode="r" horiz-adv-x="622" 
d="M176 0v989h62v-180q150 199 340 199v-74q-18 2 -50 2q-76 0 -165.5 -62t-124.5 -133v-741h-62z" />
    <glyph glyph-name="s" unicode="s" horiz-adv-x="929" 
d="M90 133l49 45q49 -66 130 -106.5t184 -40.5q134 0 213 64.5t79 164.5q0 27 -6 49.5t-20 41t-27.5 33t-39.5 28t-44 22t-52 19.5t-52.5 16.5t-57.5 15.5q-37 10 -55 15t-52.5 15.5t-52.5 18t-46.5 21t-43.5 26.5t-34 31.5t-28.5 38.5t-16 46t-6.5 55q0 113 90 187.5
t245 74.5q225 0 340 -150l-45 -41q-44 63 -120.5 99t-174.5 36q-126 0 -200 -58t-74 -148q0 -59 45 -100t86.5 -56t138.5 -41q9 -3 13 -4q48 -12 74 -19t69 -22t67.5 -28.5t55.5 -36t47 -47.5t27.5 -60.5t11.5 -77.5q0 -123 -91 -204t-263 -81q-118 0 -204 37t-159 121z" />
    <glyph glyph-name="t" unicode="t" horiz-adv-x="524" 
d="M25 934v55h163v271h62v-271h201v-55h-201v-760q0 -66 26.5 -104.5t79.5 -38.5q71 0 117 53l37 -47q-65 -62 -154 -62q-84 0 -126 52t-42 147v760h-163z" />
    <glyph glyph-name="u" unicode="u" horiz-adv-x="1081" 
d="M176 295v694h62v-694q0 -147 65.5 -205.5t190.5 -58.5q99 0 197.5 52t152.5 128v778h61v-989h-61v152q-68 -76 -164.5 -126.5t-194.5 -50.5q-153 0 -231 75.5t-78 244.5z" />
    <glyph glyph-name="v" unicode="v" horiz-adv-x="964" 
d="M23 989h71l389 -917l387 917h72l-424 -989h-72z" />
    <glyph glyph-name="w" unicode="w" horiz-adv-x="1441" 
d="M45 989h68l286 -893l297 893h49l297 -893l287 893h68l-328 -989h-49l-299 897l-299 -897h-49z" />
    <glyph glyph-name="x" unicode="x" horiz-adv-x="966" 
d="M45 0l404 508l-381 481h79l336 -438l336 438h80l-381 -481l404 -508h-80l-359 467l-358 -467h-80z" />
    <glyph glyph-name="y" unicode="y" horiz-adv-x="964" 
d="M23 989h71l389 -917l387 917h72l-524 -1222q-74 -168 -217 -168q-55 0 -99 14l13 57q37 -16 86 -16q52 0 87 29t68 106l90 205z" />
    <glyph glyph-name="z" unicode="z" horiz-adv-x="954" 
d="M123 0v55l629 879h-629v55h700v-55l-633 -879h641v-55h-708z" />
    <glyph glyph-name="braceleft" unicode="{" horiz-adv-x="485" 
d="M14 469v61q51 0 79 43.5t28 104.5v479q0 100 62 166t141 66h127v-62h-127q-58 0 -100 -49t-42 -121v-479q0 -139 -92 -178q92 -39 92 -178v-480q0 -71 42 -120.5t100 -49.5h127v-61h-127q-79 0 -141 65.5t-62 165.5v480q0 61 -28 104t-79 43z" />
    <glyph glyph-name="bar" unicode="|" horiz-adv-x="421" 
d="M180 -41v1448h62v-1448h-62z" />
    <glyph glyph-name="braceright" unicode="}" horiz-adv-x="485" 
d="M35 -328h127q58 0 99.5 49.5t41.5 120.5v480q0 139 92 178q-92 39 -92 178v479q0 72 -41.5 121t-99.5 49h-127v62h127q79 0 141 -66t62 -166v-479q0 -62 27.5 -105t78.5 -43v-61q-51 0 -78.5 -42.5t-27.5 -104.5v-480q0 -100 -62 -165.5t-141 -65.5h-127v61z" />
    <glyph glyph-name="asciitilde" unicode="~" horiz-adv-x="1015" 
d="M57 893q10 102 27.5 180t47 146.5t78 105.5t112.5 37q38 0 70 -14.5t51.5 -33t40 -55.5t29.5 -60t26 -69q15 -39 21.5 -56.5t22 -47.5t29 -43.5t35.5 -25t47 -11.5q86 0 134 104t69 316l61 -6q-10 -103 -27 -181t-46.5 -147.5t-77.5 -107t-113 -37.5q-38 0 -70 14.5
t-51.5 32.5t-40 54.5t-29.5 59.5t-26 68q-17 48 -27.5 71.5t-29.5 54.5t-42.5 44.5t-55.5 13.5q-86 0 -134 -103.5t-69 -313.5z" />
    <glyph glyph-name="uni00A0" unicode="&#xa0;" horiz-adv-x="532" 
 />
    <glyph glyph-name="exclamdown" unicode="&#xa1;" 
d="M145 940q0 28 20 48t48 20t48 -20t20 -48q0 -26 -20 -46t-48 -20t-48 20t-20 46zM170 -377l23 1036h40l23 -1036h-86z" />
    <glyph glyph-name="cent" unicode="&#xa2;" horiz-adv-x="1009" 
d="M123 496q0 204 113 349t301 165v147h61v-143q111 -1 186.5 -42.5t143.5 -123.5l-45 -37q-58 77 -127.5 111t-157.5 36v-927q176 0 285 149l45 -39q-68 -82 -143.5 -123.5t-186.5 -42.5v-180h-61v185q-188 20 -301 166t-113 350zM190 496q0 -120 40.5 -219t120 -164.5
t186.5 -79.5v921q-161 -21 -254 -148t-93 -310z" />
    <glyph glyph-name="sterling" unicode="&#xa3;" horiz-adv-x="1005" 
d="M35 547v61h293l-58 62q-41 42 -61.5 66t-49.5 67t-42 91.5t-13 106.5q0 74 31 143.5t85.5 123t135.5 86t174 32.5q114 0 213 -58.5t146 -153.5l-53 -37q-31 73 -115 130.5t-191 57.5q-148 0 -253 -87.5t-105 -236.5q0 -52 12 -97t39.5 -86.5t46 -64t58.5 -65.5
q11 -11 69 -80h312v-61h-273q33 -64 33 -131q0 -102 -46 -171.5t-130 -133.5q58 20 113 20q34 0 69 -9t53 -17t54 -25q88 -47 155 -47q65 0 126.5 28t86.5 60l37 -55q-98 -95 -254 -95q-44 0 -81 8t-57 16.5t-48 24.5q-31 17 -47.5 25t-52.5 16.5t-78 8.5q-80 0 -244 -84
l-29 67q155 66 233.5 160.5t78.5 202.5q0 68 -37 131h-336z" />
    <glyph glyph-name="currency" unicode="&#xa4;" horiz-adv-x="1181" 
d="M63 1167l43 43l168 -170q129 119 316 119q189 0 315 -117l166 166l43 -43l-168 -168q105 -130 105 -315q0 -182 -103 -313l166 -166l-43 -43l-164 164q-127 -121 -317 -121q-194 0 -318 121l-163 -164l-43 43l165 166q-102 130 -102 313q0 187 104 315zM197 682
q0 -111 44.5 -204.5t136 -153.5t212.5 -60q122 0 213.5 60t135.5 153.5t44 204.5q0 110 -44 203t-135.5 153t-213.5 60q-121 0 -212.5 -60t-136 -153t-44.5 -203z" />
    <glyph glyph-name="yen" unicode="&#xa5;" horiz-adv-x="1249" 
d="M43 264v62h549v266h-549v61h504l-504 713h84l498 -709l497 709h84l-506 -713h506v-61h-549v-266h549v-62h-549v-264h-65v264h-549z" />
    <glyph glyph-name="brokenbar" unicode="&#xa6;" horiz-adv-x="421" 
d="M180 -41v647h62v-647h-62zM180 760v647h62v-647h-62z" />
    <glyph glyph-name="section" unicode="&#xa7;" horiz-adv-x="929" 
d="M90 -8l49 45q111 -148 314 -148q129 0 210.5 63t81.5 167q0 42 -18 75.5t-41.5 54t-70 40t-78.5 29t-91 24.5q-150 41 -207 71q-128 67 -128 197q0 107 72.5 173.5t193.5 93.5q-131 36 -198.5 91t-67.5 156q0 110 87.5 186t247.5 76q117 0 203 -42t137 -107l-45 -41
q-50 69 -128 102t-167 33q-120 0 -197 -58.5t-77 -152.5q0 -37 15.5 -65.5t39 -47.5t61.5 -35t73 -26t83 -22q6 -1 9 -2q41 -10 64.5 -16t61.5 -18t61 -23t53 -28t47.5 -37t34.5 -45t24.5 -57.5t7.5 -70.5q0 -181 -205 -260q102 -38 153.5 -95.5t51.5 -152.5
q0 -133 -96.5 -209t-257.5 -76q-71 0 -128 12t-100 36t-72.5 49t-62.5 61zM172 606q0 -38 19 -68t42 -49t73.5 -38t82.5 -27.5t99 -25.5q29 -7 44 -11q105 46 159 103.5t54 142.5q0 41 -18 74.5t-42 54.5t-67.5 40.5t-73.5 28.5t-81 23q-161 -42 -226 -102.5t-65 -145.5z
" />
    <glyph glyph-name="dieresis" unicode="&#xa8;" horiz-adv-x="516" 
d="M-6 1225q0 23 17 40t40 17t40.5 -17t17.5 -40t-17.5 -40.5t-40.5 -17.5t-40 17.5t-17 40.5zM408 1225q0 23 17 40t40 17t40 -17t17 -40t-17 -40.5t-40 -17.5t-40 17.5t-17 40.5z" />
    <glyph glyph-name="copyright" unicode="&#xa9;" horiz-adv-x="1593" 
d="M90 684q0 192 95 355t258 257.5t354 94.5q144 0 275 -56t225 -150.5t150 -225.5t56 -275q0 -143 -56 -274t-150 -226t-225 -151t-275 -56q-191 0 -354 95t-258 258t-95 354zM143 684q0 -106 33.5 -205.5t94 -179.5t141 -141t180 -94t205.5 -33q177 0 327.5 88t238 238.5
t87.5 326.5q0 133 -52 253.5t-139.5 208t-208 139.5t-253.5 52q-132 0 -253 -52t-209 -139.5t-140 -208.5t-52 -253zM371 688q0 186 124 312t302 126q183 0 295 -131l-41 -41q-39 53 -110 85t-144 32q-148 0 -257.5 -108t-109.5 -277q0 -82 30.5 -155t81.5 -123.5
t117.5 -79.5t137.5 -29q74 0 144 32.5t110 86.5l41 -41q-114 -133 -295 -133q-178 0 -302 128.5t-124 315.5z" />
    <glyph glyph-name="ordfeminine" unicode="&#xaa;" horiz-adv-x="761" 
d="M102 866q0 99 69 156t163 57q140 0 231 -94v139q0 71 -55 111.5t-129 40.5q-132 0 -211 -102l-37 38q51 59 110 87t140 28q105 0 171.5 -51.5t66.5 -151.5v-456h-56v77q-91 -94 -231 -94q-93 0 -162.5 59t-69.5 156zM162 866q0 -74 52.5 -122t137.5 -48q64 0 120.5 25
t92.5 70v149q-36 45 -92.5 69.5t-120.5 24.5q-85 0 -137.5 -48t-52.5 -120z" />
    <glyph glyph-name="guillemotleft" unicode="&#xab;" horiz-adv-x="745" 
d="M61 498l328 362h80l-328 -362l328 -369h-80zM276 498l328 362h80l-328 -362l328 -369h-80z" />
    <glyph glyph-name="logicalnot" unicode="&#xac;" horiz-adv-x="1011" 
d="M59 856v62h893v-467h-65v405h-828z" />
    <glyph glyph-name="uni00AD" unicode="&#xad;" horiz-adv-x="614" 
d="M61 465v61h492v-61h-492z" />
    <glyph glyph-name="registered" unicode="&#xae;" horiz-adv-x="1011" 
d="M72 952q0 181 127 307.5t307 126.5q119 0 219 -57.5t157.5 -157.5t57.5 -219q0 -180 -126.5 -307t-307.5 -127q-180 0 -307 127t-127 307zM125 952q0 -157 111.5 -269t269.5 -112t269.5 112t111.5 269q0 159 -111 270t-270 111t-270 -111t-111 -270zM342 702v498h203
q64 0 107.5 -41.5t43.5 -109.5q0 -72 -46 -110t-81 -38l133 -199h-75l-129 197h-97v-197h-59zM401 956h144q33 0 61.5 28t28.5 65q0 40 -28 68t-62 28h-144v-189z" />
    <glyph glyph-name="macron" unicode="&#xaf;" horiz-adv-x="743" 
d="M0 1190v55h743v-55h-743z" />
    <glyph glyph-name="degree" unicode="&#xb0;" horiz-adv-x="559" 
d="M53 1159q0 94 66 160.5t160 66.5t160.5 -66.5t66.5 -160.5t-66.5 -159.5t-160.5 -65.5t-160 65.5t-66 159.5zM115 1159q0 -67 48.5 -115.5t115.5 -48.5q68 0 116.5 48.5t48.5 115.5q0 68 -49 117t-116 49t-115.5 -49t-48.5 -117z" />
    <glyph glyph-name="plusminus" unicode="&#xb1;" horiz-adv-x="1011" 
d="M59 0v61h893v-61h-893zM59 659v62h414v442h66v-442h413v-62h-413v-454h-66v454h-414z" />
    <glyph glyph-name="uni00B2" unicode="&#xb2;" horiz-adv-x="778" 
d="M111 862v49q117 85 196.5 149.5t151.5 136.5t107.5 137.5t35.5 127.5q0 90 -61 134t-144 44q-77 0 -138.5 -29.5t-94.5 -78.5l-41 37q41 58 114.5 91.5t161.5 33.5q37 0 72.5 -7.5t70.5 -25t61.5 -43.5t42.5 -66t16 -88q0 -56 -25.5 -114.5t-64.5 -109.5t-103.5 -110.5
t-123.5 -106t-144 -108.5h465v-53h-555z" />
    <glyph glyph-name="uni00B3" unicode="&#xb3;" horiz-adv-x="778" 
d="M102 983l41 35q37 -53 99.5 -85t142.5 -32q102 0 161.5 48t59.5 132q0 90 -67 134.5t-172 44.5q-56 0 -74 -3v56q12 -2 74 -2q98 0 162.5 41t64.5 125q0 75 -61 119t-150 44q-74 0 -128.5 -25.5t-102.5 -80.5l-39 37q103 123 272 123q112 0 190 -58t78 -157
q0 -47 -18.5 -84.5t-47.5 -59t-58 -33.5t-58 -16q29 -2 61.5 -15.5t63.5 -37t51.5 -63.5t20.5 -89q0 -103 -76 -168t-207 -65q-98 0 -172.5 38t-110.5 97z" />
    <glyph glyph-name="acute" unicode="&#xb4;" horiz-adv-x="419" 
d="M0 1139l328 295h92l-359 -295h-61z" />
    <glyph glyph-name="uni00B5" unicode="&#xb5;" horiz-adv-x="1110" 
d="M176 -377v1366h62v-694q0 -268 260 -268q95 0 193.5 54t152.5 130v778h61v-815q0 -66 26.5 -104.5t80.5 -38.5q25 0 41 4l6 -55q-30 -5 -47 -5q-154 0 -168 177q-66 -76 -159 -126.5t-187 -50.5q-195 0 -260 134v-486h-62z" />
    <glyph glyph-name="paragraph" unicode="&#xb6;" horiz-adv-x="919" 
d="M55 1014q0 146 103.5 249t249.5 103h323v-1571h-61v1510h-201v-1510h-61v867q-146 0 -249.5 103t-103.5 249z" />
    <glyph glyph-name="periodcentered" unicode="&#xb7;" 
d="M145 502q0 26 20 45.5t48 19.5t48 -19.5t20 -45.5q0 -28 -20 -48t-48 -20t-48 20t-20 48z" />
    <glyph glyph-name="cedilla" unicode="&#xb8;" horiz-adv-x="391" 
d="M0 -326l29 56q66 -58 161 -58q59 0 100.5 27.5t41.5 73.5q0 41 -22.5 64.5t-67.5 23.5q-57 0 -88 -39l-45 26l63 175h61l-53 -142q31 25 78 25q60 0 96.5 -36t36.5 -97q0 -68 -57.5 -112t-143.5 -44q-56 0 -107.5 16.5t-82.5 40.5z" />
    <glyph glyph-name="uni00B9" unicode="&#xb9;" horiz-adv-x="393" 
d="M41 1499l174 182h55v-819h-61v737l-129 -141z" />
    <glyph glyph-name="ordmasculine" unicode="&#xba;" horiz-adv-x="829" 
d="M98 989q0 144 88.5 241t227.5 97q142 0 229.5 -96.5t87.5 -241.5q0 -144 -87.5 -241t-229.5 -97q-139 0 -227.5 97.5t-88.5 240.5zM160 989q0 -119 68.5 -201.5t185.5 -82.5q119 0 188.5 82.5t69.5 201.5t-69.5 201t-188.5 82q-117 0 -185.5 -82t-68.5 -201z" />
    <glyph glyph-name="guillemotright" unicode="&#xbb;" horiz-adv-x="745" 
d="M61 129l328 369l-328 362h80l328 -362l-328 -369h-80zM276 129l328 369l-328 362h80l328 -362l-328 -369h-80z" />
    <glyph glyph-name="onequarter" unicode="&#xbc;" horiz-adv-x="1464" 
d="M41 1184l174 182h55v-819h-61v737l-129 -141zM170 0l872 1366h76l-874 -1366h-74zM782 231v54l381 534h80v-534h127v-54h-127v-231h-59v231h-402zM846 285h338v475z" />
    <glyph glyph-name="onehalf" unicode="&#xbd;" horiz-adv-x="1546" 
d="M41 1184l174 182h55v-819h-61v737l-129 -141zM170 0l872 1366h76l-874 -1366h-74zM879 0v49q117 85 196.5 149.5t151.5 136.5t107.5 137.5t35.5 127.5q0 90 -61 134t-144 44q-77 0 -138.5 -29.5t-94.5 -78.5l-41 37q41 58 114.5 91t161.5 33q47 0 91 -12.5t84 -38.5
t64 -72t24 -106q0 -56 -25.5 -114.5t-64.5 -109.5t-103.5 -110.5t-123.5 -106t-144 -108.5h465v-53h-555z" />
    <glyph glyph-name="threequarters" unicode="&#xbe;" horiz-adv-x="1722" 
d="M102 668l41 34q37 -53 99.5 -84.5t142.5 -31.5q102 0 161.5 48t59.5 132q0 90 -67 134t-172 44q-62 0 -74 -2v55q12 -2 74 -2q98 0 162.5 41t64.5 125q0 75 -61 119.5t-150 44.5q-74 0 -128.5 -25.5t-102.5 -80.5l-39 36q103 123 272 123q112 0 190 -58t78 -157
q0 -47 -18.5 -84t-48 -58.5t-58 -33.5t-57.5 -16q29 -2 61.5 -15.5t63.5 -37t51.5 -63.5t20.5 -89q0 -103 -76 -168.5t-207 -65.5q-98 0 -172.5 38.5t-110.5 97.5zM428 0l872 1366h76l-874 -1366h-74zM1040 231v54l381 534h80v-534h127v-54h-127v-231h-59v231h-402z
M1104 285h338v475z" />
    <glyph glyph-name="questiondown" unicode="&#xbf;" horiz-adv-x="800" 
d="M84 -90q0 50 15.5 94.5t36 75.5t59 66t64.5 53.5t73 50.5q41 28 59.5 41t50 39.5t45.5 46t25.5 48t11.5 58.5q0 25 -17.5 56t-49.5 53l39 47q90 -67 90 -156q0 -40 -13.5 -76t-29 -60t-51.5 -55.5t-54.5 -45t-64.5 -45.5q-43 -29 -65.5 -45.5t-56.5 -47t-51 -56.5
t-30.5 -63.5t-13.5 -78.5q0 -107 82 -179.5t227 -72.5q140 0 230.5 51t160.5 150l47 -43q-153 -219 -438 -219q-174 0 -277.5 91.5t-103.5 221.5zM434 940q0 28 20 48t48 20t47.5 -20t19.5 -48q0 -26 -19.5 -46t-47.5 -20t-48 20t-20 46z" />
    <glyph glyph-name="Agrave" unicode="&#xc0;" horiz-adv-x="1302" 
d="M43 0l569 1366h78l570 -1366h-76l-152 367h-762l-151 -367h-76zM295 428h713l-357 862zM336 1776h92l328 -295h-62z" />
    <glyph glyph-name="Aacute" unicode="&#xc1;" horiz-adv-x="1302" 
d="M43 0l569 1366h78l570 -1366h-76l-152 367h-762l-151 -367h-76zM295 428h713l-357 862zM547 1481l327 295h93l-359 -295h-61z" />
    <glyph glyph-name="Acircumflex" unicode="&#xc2;" horiz-adv-x="1302" 
d="M43 0l569 1366h78l570 -1366h-76l-152 367h-762l-151 -367h-76zM295 428h713l-357 862zM414 1481l200 295h74l207 -295h-57l-187 245l-180 -245h-57z" />
    <glyph glyph-name="Atilde" unicode="&#xc3;" horiz-adv-x="1302" 
d="M43 0l569 1366h78l570 -1366h-76l-152 367h-762l-151 -367h-76zM295 428h713l-357 862zM344 1489q0 116 48 195t132 79q30 0 54 -10.5t43 -32.5t29.5 -38.5t27.5 -47.5q15 -27 22.5 -39.5t21.5 -30t29.5 -25t34.5 -7.5q54 0 87.5 54.5t33.5 164.5h54q0 -116 -48.5 -195
t-132.5 -79q-31 0 -54.5 10t-43 33.5t-28.5 38t-27 47.5q-19 35 -30 52t-32.5 33.5t-46.5 16.5q-54 0 -87.5 -54.5t-33.5 -164.5h-53z" />
    <glyph glyph-name="Adieresis" unicode="&#xc4;" horiz-adv-x="1302" 
d="M43 0l569 1366h78l570 -1366h-76l-152 367h-762l-151 -367h-76zM295 428h713l-357 862zM389 1567q0 23 17 40t40 17t40.5 -17t17.5 -40t-17.5 -40.5t-40.5 -17.5t-40 17.5t-17 40.5zM803 1567q0 23 17 40t40 17t40.5 -17t17.5 -40t-17.5 -40.5t-40.5 -17.5t-40 17.5
t-17 40.5z" />
    <glyph glyph-name="Aring" unicode="&#xc5;" horiz-adv-x="1302" 
d="M43 0l569 1366h78l570 -1366h-76l-152 367h-762l-151 -367h-76zM295 428h713l-357 862zM463 1608q0 78 56 134t134 56t133.5 -56t55.5 -134t-55.5 -134.5t-133.5 -56.5t-134 56.5t-56 134.5zM512 1608q0 -59 41.5 -100.5t99.5 -41.5t99 41.5t41 100.5t-41 100t-99 41
q-59 0 -100 -41.5t-41 -99.5z" />
    <glyph glyph-name="AE" unicode="&#xc6;" horiz-adv-x="1904" 
d="M43 0l870 1366h859v-61h-771v-572h756v-61h-756v-611h771v-61h-836v367h-586l-231 -367h-76zM385 428h551v862z" />
    <glyph glyph-name="Ccedilla" unicode="&#xc7;" horiz-adv-x="1366" 
d="M133 682q0 154 53.5 287t145 224.5t217 143.5t266.5 52q288 0 475 -215l-51 -46q-73 92 -185.5 145.5t-238.5 53.5q-127 0 -239.5 -47t-194 -130.5t-129 -204.5t-47.5 -263q0 -140 47.5 -261t129 -205t194 -131.5t239.5 -47.5q126 0 238.5 53.5t185.5 145.5l53 -43
q-191 -215 -467 -218l-32 -86q31 25 77 25q60 0 97 -36t37 -97q0 -68 -57.5 -112t-143.5 -44q-56 0 -108 16.5t-83 41.5l29 55q65 -57 162 -57q59 0 100 27t41 73q0 41 -22.5 64.5t-67.5 23.5q-57 0 -88 -39l-45 27l43 120q-132 9 -248 64.5t-200.5 146.5t-133.5 219
t-49 275z" />
    <glyph glyph-name="Egrave" unicode="&#xc8;" horiz-adv-x="1142" 
d="M180 0v1366h836v-61h-770v-572h755v-61h-755v-611h770v-61h-836zM283 1776h92l327 -295h-61z" />
    <glyph glyph-name="Eacute" unicode="&#xc9;" horiz-adv-x="1142" 
d="M180 0v1366h836v-61h-770v-572h755v-61h-755v-611h770v-61h-836zM494 1481l327 295h92l-358 -295h-61z" />
    <glyph glyph-name="Ecircumflex" unicode="&#xca;" horiz-adv-x="1142" 
d="M180 0v1366h836v-61h-770v-572h755v-61h-755v-611h770v-61h-836zM354 1481l201 295h74l207 -295h-58l-186 245l-180 -245h-58z" />
    <glyph glyph-name="Edieresis" unicode="&#xcb;" horiz-adv-x="1142" 
d="M180 0v1366h836v-61h-770v-572h755v-61h-755v-611h770v-61h-836zM330 1567q0 23 17 40t40 17t40 -17t17 -40t-17 -40.5t-40 -17.5t-40 17.5t-17 40.5zM743 1567q0 23 17.5 40t40.5 17t40 -17t17 -40t-17 -40.5t-40 -17.5t-40.5 17.5t-17.5 40.5z" />
    <glyph glyph-name="Igrave" unicode="&#xcc;" 
d="M-102 1776h92l327 -295h-61zM180 0v1366h66v-1366h-66z" />
    <glyph glyph-name="Iacute" unicode="&#xcd;" 
d="M109 1481l327 295h92l-358 -295h-61zM180 0v1366h66v-1366h-66z" />
    <glyph glyph-name="Icircumflex" unicode="&#xce;" 
d="M-25 1481l201 295h74l207 -295h-58l-186 245l-180 -245h-58zM180 0v1366h66v-1366h-66z" />
    <glyph glyph-name="Idieresis" unicode="&#xcf;" 
d="M-51 1567q0 23 17 40t40 17t40 -17t17 -40t-17 -40.5t-40 -17.5t-40 17.5t-17 40.5zM180 0v1366h66v-1366h-66zM362 1567q0 23 17.5 40t40.5 17t40 -17t17 -40t-17 -40.5t-40 -17.5t-40.5 17.5t-17.5 40.5z" />
    <glyph glyph-name="Eth" unicode="&#xd0;" horiz-adv-x="1464" 
d="M25 651v62h219v653h405q155 0 284.5 -55.5t215 -149.5t133 -218t47.5 -261q0 -139 -47.5 -262.5t-133 -217t-215 -148t-284.5 -54.5h-405v651h-219zM309 61h340q142 0 258 48.5t192 132.5t117 197t41 243q0 103 -25.5 196t-77 171t-124 135t-170 89t-211.5 32h-340v-592
h385v-62h-385v-590z" />
    <glyph glyph-name="Ntilde" unicode="&#xd1;" horiz-adv-x="1413" 
d="M180 0v1366h66l921 -1247v1247h66v-1366h-66l-921 1260v-1260h-66zM395 1489q0 116 48 195t132 79q30 0 54 -10.5t43 -32.5t29.5 -38.5t27.5 -47.5q19 -35 30 -52t32.5 -33.5t46.5 -16.5q54 0 87 54.5t33 164.5h54q0 -116 -48.5 -195t-132.5 -79q-31 0 -54.5 10t-43 33.5
t-28.5 38t-27 47.5q-19 35 -30 52t-32.5 33.5t-46.5 16.5q-54 0 -87 -54.5t-33 -164.5h-54z" />
    <glyph glyph-name="Ograve" unicode="&#xd2;" horiz-adv-x="1564" 
d="M133 682q0 198 78.5 358t227.5 254.5t343 94.5q193 0 342.5 -94.5t228.5 -255t79 -357.5t-79 -357.5t-228.5 -255t-342.5 -94.5q-194 0 -343 94.5t-227.5 254.5t-78.5 358zM205 682q0 -185 69.5 -331t201.5 -230t306 -84q172 0 304 84t203 230t71 331q0 187 -71 333
t-203 229t-304 83q-174 0 -306 -83t-201.5 -229t-69.5 -333zM467 1776h92l328 -295h-62z" />
    <glyph glyph-name="Oacute" unicode="&#xd3;" horiz-adv-x="1564" 
d="M133 682q0 198 78.5 358t227.5 254.5t343 94.5q193 0 342.5 -94.5t228.5 -255t79 -357.5t-79 -357.5t-228.5 -255t-342.5 -94.5q-194 0 -343 94.5t-227.5 254.5t-78.5 358zM205 682q0 -185 69.5 -331t201.5 -230t306 -84q172 0 304 84t203 230t71 331q0 187 -71 333
t-203 229t-304 83q-174 0 -306 -83t-201.5 -229t-69.5 -333zM678 1481l328 295h92l-359 -295h-61z" />
    <glyph glyph-name="Ocircumflex" unicode="&#xd4;" horiz-adv-x="1564" 
d="M133 682q0 198 78.5 358t227.5 254.5t343 94.5q193 0 342.5 -94.5t228.5 -255t79 -357.5t-79 -357.5t-228.5 -255t-342.5 -94.5q-194 0 -343 94.5t-227.5 254.5t-78.5 358zM205 682q0 -185 69.5 -331t201.5 -230t306 -84q172 0 304 84t203 230t71 331q0 187 -71 333
t-203 229t-304 83q-174 0 -306 -83t-201.5 -229t-69.5 -333zM545 1481l200 295h74l207 -295h-57l-187 245l-180 -245h-57z" />
    <glyph glyph-name="Otilde" unicode="&#xd5;" horiz-adv-x="1564" 
d="M133 682q0 198 78.5 358t227.5 254.5t343 94.5q193 0 342.5 -94.5t228.5 -255t79 -357.5t-79 -357.5t-228.5 -255t-342.5 -94.5q-194 0 -343 94.5t-227.5 254.5t-78.5 358zM205 682q0 -185 69.5 -331t201.5 -230t306 -84q172 0 304 84t203 230t71 331q0 187 -71 333
t-203 229t-304 83q-174 0 -306 -83t-201.5 -229t-69.5 -333zM475 1489q0 116 48 195t132 79q30 0 54 -10.5t43 -32.5t29.5 -38.5t27.5 -47.5q19 -35 30 -52t32.5 -33.5t46.5 -16.5q54 0 87 54.5t33 164.5h54q0 -116 -48.5 -195t-132.5 -79q-31 0 -54.5 10t-43 33.5t-28.5 38
t-27 47.5q-19 35 -30 52t-32.5 33.5t-46.5 16.5q-54 0 -87.5 -54.5t-33.5 -164.5h-53z" />
    <glyph glyph-name="Odieresis" unicode="&#xd6;" horiz-adv-x="1564" 
d="M133 682q0 198 78.5 358t227.5 254.5t343 94.5q193 0 342.5 -94.5t228.5 -255t79 -357.5t-79 -357.5t-228.5 -255t-342.5 -94.5q-194 0 -343 94.5t-227.5 254.5t-78.5 358zM205 682q0 -185 69.5 -331t201.5 -230t306 -84q172 0 304 84t203 230t71 331q0 187 -71 333
t-203 229t-304 83q-174 0 -306 -83t-201.5 -229t-69.5 -333zM514 1567q0 23 17 40t40 17t40.5 -17t17.5 -40t-17.5 -40.5t-40.5 -17.5t-40 17.5t-17 40.5zM928 1567q0 23 17 40t40 17t40 -17t17 -40t-17 -40.5t-40 -17.5t-40 17.5t-17 40.5z" />
    <glyph glyph-name="multiply" unicode="&#xd7;" horiz-adv-x="1011" 
d="M145 367l318 317l-318 317l43 43l318 -317l317 317l43 -43l-317 -317l317 -317l-43 -43l-317 317l-318 -317z" />
    <glyph glyph-name="Oslash" unicode="&#xd8;" horiz-adv-x="1564" 
d="M133 682q0 198 78.5 358t227.5 254.5t343 94.5q180 0 332 -89l39 66h74l-62 -102q126 -94 196.5 -247t70.5 -335q0 -197 -79 -357.5t-228.5 -255t-342.5 -94.5q-188 0 -333 88l-37 -63h-74l59 98q-126 95 -195 247.5t-69 336.5zM205 682q0 -168 58.5 -304.5t166.5 -223.5
l651 1093q-132 80 -299 80q-174 0 -306 -83t-201.5 -229t-69.5 -333zM481 117q132 -80 301 -80q172 0 304 84t203 230t71 331q0 167 -59.5 304t-167.5 224z" />
    <glyph glyph-name="Ugrave" unicode="&#xd9;" horiz-adv-x="1376" 
d="M180 518v848h66v-848q0 -229 114 -355t328 -126t328 126t114 355v848h66v-848q0 -257 -131 -400t-377 -143t-377 143.5t-131 399.5zM373 1776h92l328 -295h-62z" />
    <glyph glyph-name="Uacute" unicode="&#xda;" horiz-adv-x="1376" 
d="M180 518v848h66v-848q0 -229 114 -355t328 -126t328 126t114 355v848h66v-848q0 -257 -131 -400t-377 -143t-377 143.5t-131 399.5zM584 1481l327 295h93l-359 -295h-61z" />
    <glyph glyph-name="Ucircumflex" unicode="&#xdb;" horiz-adv-x="1376" 
d="M180 518v848h66v-848q0 -229 114 -355t328 -126t328 126t114 355v848h66v-848q0 -257 -131 -400t-377 -143t-377 143.5t-131 399.5zM455 1481l200 295h74l207 -295h-57l-187 245l-180 -245h-57z" />
    <glyph glyph-name="Udieresis" unicode="&#xdc;" horiz-adv-x="1376" 
d="M180 518v848h66v-848q0 -229 114 -355t328 -126t328 126t114 355v848h66v-848q0 -257 -131 -400t-377 -143t-377 143.5t-131 399.5zM424 1567q0 23 17 40t40 17t40.5 -17t17.5 -40t-17.5 -40.5t-40.5 -17.5t-40 17.5t-17 40.5zM838 1567q0 23 17 40t40 17t40 -17t17 -40
t-17 -40.5t-40 -17.5t-40 17.5t-17 40.5z" />
    <glyph glyph-name="Yacute" unicode="&#xdd;" horiz-adv-x="1249" 
d="M43 1366h84l498 -709l497 709h84l-549 -774v-592h-65v592zM520 1481l328 295h92l-358 -295h-62z" />
    <glyph glyph-name="Thorn" unicode="&#xde;" horiz-adv-x="1136" 
d="M180 0v1366h66v-264h407q123 0 215.5 -54t138.5 -141.5t46 -193.5q0 -163 -109 -274t-291 -111h-407v-328h-66zM246 389h405q149 0 239.5 90.5t90.5 233.5t-90.5 235t-239.5 92h-405v-651z" />
    <glyph glyph-name="germandbls" unicode="&#xdf;" horiz-adv-x="1142" 
d="M176 0v1063q0 138 90.5 230.5t233.5 92.5q126 0 214.5 -62t88.5 -163q0 -40 -13.5 -72.5t-43.5 -59.5t-52.5 -42t-66.5 -41q-41 -25 -62 -39t-49 -39.5t-40.5 -54.5t-12.5 -65q0 -21 5.5 -39.5t12.5 -33t23 -28t28 -23t35.5 -20t38.5 -16t45 -14.5t45 -13t49 -12
q47 -11 74 -18.5t69.5 -21.5t67.5 -27.5t55.5 -36t47 -47.5t28 -60.5t11.5 -77.5q0 -54 -20 -103.5t-60.5 -91t-111.5 -66t-163 -24.5q-71 0 -128 12t-100 36t-72 49t-62 61l49 45q112 -147 313 -147q141 0 217 67t76 162q0 30 -9.5 56t-22.5 44.5t-39 36t-46 28t-58 23.5
t-60 19l-66 18q-46 12 -71 19t-66 21.5t-64 27t-52 33t-44 43.5t-26 54.5t-11 68.5q0 44 15 80t47.5 66.5t57 47.5t69.5 45q30 18 46.5 28.5t39.5 28.5t35 33t21 36t9 44q0 78 -74.5 124t-166.5 46q-110 0 -186 -73.5t-76 -194.5v-1063h-62z" />
    <glyph glyph-name="agrave" unicode="&#xe0;" horiz-adv-x="1052" 
d="M127 305q0 151 103 240.5t243 89.5q208 0 342 -146v224q0 116 -79.5 180.5t-198.5 64.5q-98 0 -174 -36.5t-144 -118.5l-47 41q75 88 159.5 129t205.5 41q153 0 246.5 -76.5t93.5 -222.5v-715h-62v121q-134 -146 -342 -146q-89 0 -166.5 37.5t-128.5 114.5t-51 178z
M195 305q0 -118 81 -196t213 -78q99 0 184.5 38.5t141.5 112.5v246q-56 74 -141.5 113t-184.5 39q-132 0 -213 -78.5t-81 -196.5zM221 1434h92l328 -295h-61z" />
    <glyph glyph-name="aacute" unicode="&#xe1;" horiz-adv-x="1052" 
d="M127 305q0 151 103 240.5t243 89.5q208 0 342 -146v224q0 116 -79.5 180.5t-198.5 64.5q-98 0 -174 -36.5t-144 -118.5l-47 41q75 88 159.5 129t205.5 41q153 0 246.5 -76.5t93.5 -222.5v-715h-62v121q-134 -146 -342 -146q-89 0 -166.5 37.5t-128.5 114.5t-51 178z
M195 305q0 -118 81 -196t213 -78q99 0 184.5 38.5t141.5 112.5v246q-56 74 -141.5 113t-184.5 39q-132 0 -213 -78.5t-81 -196.5zM432 1139l328 295h92l-358 -295h-62z" />
    <glyph glyph-name="acircumflex" unicode="&#xe2;" horiz-adv-x="1052" 
d="M127 305q0 151 103 240.5t243 89.5q208 0 342 -146v224q0 116 -79.5 180.5t-198.5 64.5q-98 0 -174 -36.5t-144 -118.5l-47 41q75 88 159.5 129t205.5 41q153 0 246.5 -76.5t93.5 -222.5v-715h-62v121q-134 -146 -342 -146q-89 0 -166.5 37.5t-128.5 114.5t-51 178z
M195 305q0 -118 81 -196t213 -78q99 0 184.5 38.5t141.5 112.5v246q-56 74 -141.5 113t-184.5 39q-132 0 -213 -78.5t-81 -196.5zM299 1139l201 295h73l207 -295h-57l-186 245l-181 -245h-57z" />
    <glyph glyph-name="atilde" unicode="&#xe3;" horiz-adv-x="1052" 
d="M127 305q0 151 103 240.5t243 89.5q208 0 342 -146v224q0 116 -79.5 180.5t-198.5 64.5q-98 0 -174 -36.5t-144 -118.5l-47 41q75 88 159.5 129t205.5 41q153 0 246.5 -76.5t93.5 -222.5v-715h-62v121q-134 -146 -342 -146q-89 0 -166.5 37.5t-128.5 114.5t-51 178z
M195 305q0 -118 81 -196t213 -78q99 0 184.5 38.5t141.5 112.5v246q-56 74 -141.5 113t-184.5 39q-132 0 -213 -78.5t-81 -196.5zM227 1147q0 116 48.5 195t132.5 79q30 0 53.5 -10t43 -33t29.5 -38.5t27 -47.5q19 -35 30 -52t32.5 -33.5t46.5 -16.5q54 0 87.5 54.5
t33.5 164.5h53q0 -116 -48 -195t-132 -79q-25 0 -46.5 8.5t-35 18.5t-29 31.5t-22.5 33t-21 37.5q-19 35 -30 52t-32.5 33.5t-46.5 16.5q-54 0 -87 -54.5t-33 -164.5h-54z" />
    <glyph glyph-name="adieresis" unicode="&#xe4;" horiz-adv-x="1052" 
d="M127 305q0 151 103 240.5t243 89.5q208 0 342 -146v224q0 116 -79.5 180.5t-198.5 64.5q-98 0 -174 -36.5t-144 -118.5l-47 41q75 88 159.5 129t205.5 41q153 0 246.5 -76.5t93.5 -222.5v-715h-62v121q-134 -146 -342 -146q-89 0 -166.5 37.5t-128.5 114.5t-51 178z
M195 305q0 -118 81 -196t213 -78q99 0 184.5 38.5t141.5 112.5v246q-56 74 -141.5 113t-184.5 39q-132 0 -213 -78.5t-81 -196.5zM268 1225q0 23 17.5 40t40.5 17t40 -17t17 -40t-17 -40.5t-40 -17.5t-40.5 17.5t-17.5 40.5zM682 1225q0 23 17 40t40 17t40.5 -17t17.5 -40
t-17.5 -40.5t-40.5 -17.5t-40 17.5t-17 40.5z" />
    <glyph glyph-name="aring" unicode="&#xe5;" horiz-adv-x="1052" 
d="M127 305q0 151 103 240.5t243 89.5q208 0 342 -146v224q0 116 -79.5 180.5t-198.5 64.5q-98 0 -174 -36.5t-144 -118.5l-47 41q75 88 159.5 129t205.5 41q153 0 246.5 -76.5t93.5 -222.5v-715h-62v121q-134 -146 -342 -146q-89 0 -166.5 37.5t-128.5 114.5t-51 178z
M195 305q0 -118 81 -196t213 -78q99 0 184.5 38.5t141.5 112.5v246q-56 74 -141.5 113t-184.5 39q-132 0 -213 -78.5t-81 -196.5zM344 1323q0 78 56.5 134t134.5 56t133 -56t55 -134t-55 -134t-133 -56t-134.5 56t-56.5 134zM393 1323q0 -58 41.5 -99.5t100.5 -41.5
q58 0 98.5 41t40.5 100t-40.5 100t-98.5 41q-59 0 -100.5 -41.5t-41.5 -99.5z" />
    <glyph glyph-name="ae" unicode="&#xe6;" horiz-adv-x="1853" 
d="M127 307q0 102 52.5 178t135 113t181.5 37q228 0 372 -141v219q0 117 -82.5 181t-220.5 64q-107 0 -189.5 -36.5t-156.5 -118.5l-47 41q144 170 410 170q56 0 109.5 -12.5t105.5 -40t87 -79.5t42 -122q47 110 148 182t222 72q85 0 156.5 -27.5t122.5 -76t86.5 -114
t52.5 -141.5t17 -159v-21h-801q6 -188 111 -316t274 -128q190 0 321 149l37 -39q-73 -83 -157 -124.5t-199 -41.5q-140 0 -247 75.5t-159 215.5q-43 -134 -148.5 -212.5t-244.5 -78.5q-172 0 -281.5 89t-109.5 243zM195 305q0 -118 88 -196t233 -78q160 0 256 104t96 250v39
q-61 75 -153.5 115.5t-198.5 40.5q-145 0 -233 -78.5t-88 -196.5zM930 530h735q0 59 -13 117.5t-42 115t-70.5 99.5t-104.5 69.5t-139 26.5q-68 0 -127.5 -26t-101.5 -68.5t-73 -98.5t-46.5 -115.5t-17.5 -119.5z" />
    <glyph glyph-name="ccedilla" unicode="&#xe7;" horiz-adv-x="1009" 
d="M123 496q0 143 56 260t163.5 187.5t247.5 70.5q115 0 192.5 -41t145.5 -125l-45 -37q-58 79 -128.5 113t-160.5 34q-124 0 -216.5 -62t-140 -166t-47.5 -234q0 -200 109.5 -332.5t294.5 -132.5q180 0 289 149l45 -39q-64 -80 -137.5 -121t-178.5 -45l-32 -90q31 25 77 25
q60 0 97 -36t37 -97q0 -68 -57.5 -112t-143.5 -44q-56 0 -108 16.5t-83 40.5l29 56q66 -58 162 -58q59 0 100 27.5t41 73.5q0 41 -22.5 64.5t-67.5 23.5q-57 0 -88 -39l-45 27l45 124q-130 9 -229 81.5t-150 186.5t-51 251z" />
    <glyph glyph-name="egrave" unicode="&#xe8;" horiz-adv-x="1169" 
d="M123 496q0 142 60 260.5t167.5 188t237.5 69.5q110 0 199 -42t145 -114.5t85.5 -165t29.5 -196.5v-21h-854q3 -122 53 -222t145 -161t217 -61q204 0 344 149l37 -39q-79 -82 -170 -124t-211 -42q-214 0 -349.5 147t-135.5 374zM193 530h788q0 58 -15 117.5t-47 115.5
t-77 99t-111.5 69.5t-144.5 26.5q-74 0 -137.5 -26t-109 -68.5t-78.5 -98.5t-49.5 -115.5t-18.5 -119.5zM272 1434h93l327 -295h-61z" />
    <glyph glyph-name="eacute" unicode="&#xe9;" horiz-adv-x="1169" 
d="M123 496q0 142 60 260.5t167.5 188t237.5 69.5q110 0 199 -42t145 -114.5t85.5 -165t29.5 -196.5v-21h-854q3 -122 53 -222t145 -161t217 -61q204 0 344 149l37 -39q-79 -82 -170 -124t-211 -42q-214 0 -349.5 147t-135.5 374zM193 530h788q0 58 -15 117.5t-47 115.5
t-77 99t-111.5 69.5t-144.5 26.5q-74 0 -137.5 -26t-109 -68.5t-78.5 -98.5t-49.5 -115.5t-18.5 -119.5zM483 1139l328 295h92l-358 -295h-62z" />
    <glyph glyph-name="ecircumflex" unicode="&#xea;" horiz-adv-x="1169" 
d="M123 496q0 142 60 260.5t167.5 188t237.5 69.5q110 0 199 -42t145 -114.5t85.5 -165t29.5 -196.5v-21h-854q3 -122 53 -222t145 -161t217 -61q204 0 344 149l37 -39q-79 -82 -170 -124t-211 -42q-214 0 -349.5 147t-135.5 374zM193 530h788q0 58 -15 117.5t-47 115.5
t-77 99t-111.5 69.5t-144.5 26.5q-74 0 -137.5 -26t-109 -68.5t-78.5 -98.5t-49.5 -115.5t-18.5 -119.5zM352 1139l201 295h74l207 -295h-58l-186 245l-180 -245h-58z" />
    <glyph glyph-name="edieresis" unicode="&#xeb;" horiz-adv-x="1169" 
d="M123 496q0 142 60 260.5t167.5 188t237.5 69.5q110 0 199 -42t145 -114.5t85.5 -165t29.5 -196.5v-21h-854q3 -122 53 -222t145 -161t217 -61q204 0 344 149l37 -39q-79 -82 -170 -124t-211 -42q-214 0 -349.5 147t-135.5 374zM193 530h788q0 58 -15 117.5t-47 115.5
t-77 99t-111.5 69.5t-144.5 26.5q-74 0 -137.5 -26t-109 -68.5t-78.5 -98.5t-49.5 -115.5t-18.5 -119.5zM326 1225q0 23 17 40t40 17t40 -17t17 -40t-17 -40.5t-40 -17.5t-40 17.5t-17 40.5zM739 1225q0 23 17.5 40t40.5 17t40 -17t17 -40t-17 -40.5t-40 -17.5t-40.5 17.5
t-17.5 40.5z" />
    <glyph glyph-name="igrave" unicode="&#xec;" horiz-adv-x="413" 
d="M-109 1434h93l327 -295h-61zM176 0v989h62v-989h-62z" />
    <glyph glyph-name="iacute" unicode="&#xed;" horiz-adv-x="413" 
d="M102 1139l328 295h92l-358 -295h-62zM176 0v989h62v-989h-62z" />
    <glyph glyph-name="icircumflex" unicode="&#xee;" horiz-adv-x="413" 
d="M-33 1139l201 295h74l207 -295h-58l-186 245l-180 -245h-58zM176 0v989h62v-989h-62z" />
    <glyph glyph-name="idieresis" unicode="&#xef;" horiz-adv-x="413" 
d="M-57 1225q0 23 17 40t40 17t40 -17t17 -40t-17 -40.5t-40 -17.5t-40 17.5t-17 40.5zM176 0v989h62v-989h-62zM356 1225q0 23 17.5 40t40.5 17t40 -17t17 -40t-17 -40.5t-40 -17.5t-40.5 17.5t-17.5 40.5z" />
    <glyph glyph-name="eth" unicode="&#xf0;" horiz-adv-x="1167" 
d="M123 496q0 145 56.5 262.5t162.5 186.5t242 69q94 0 172.5 -39.5t146.5 -134.5q-129 202 -332 356l-288 -127l-23 53l258 115q-76 54 -178 117l37 55q131 -81 211 -141l227 100l23 -53l-199 -88q405 -334 405 -731q0 -146 -55.5 -264t-161.5 -187.5t-243 -69.5
q-136 0 -242 69.5t-162.5 188t-56.5 263.5zM190 496q0 -123 45 -227.5t136.5 -171t212.5 -66.5q92 0 168 38.5t124.5 103.5t74.5 148t26 175q0 91 -26 173.5t-74.5 147t-124.5 103t-168 38.5q-121 0 -212.5 -66t-136.5 -170t-45 -226z" />
    <glyph glyph-name="ntilde" unicode="&#xf1;" horiz-adv-x="1081" 
d="M176 0v989h62v-155q60 73 160.5 126.5t197.5 53.5q153 0 231 -77t78 -247v-690h-61v690q0 147 -66 207.5t-190 60.5q-98 0 -196.5 -54.5t-153.5 -131.5v-772h-62zM233 1147q0 116 48.5 195t132.5 79q30 0 53.5 -10t43 -33t29.5 -38.5t27 -47.5q19 -35 30 -52t32.5 -33.5
t46.5 -16.5q54 0 87.5 54.5t33.5 164.5h53q0 -116 -48 -195t-132 -79q-25 0 -46.5 8.5t-35 18.5t-29 31.5t-22.5 33t-21 37.5q-15 27 -22.5 39.5t-21.5 30t-29.5 25t-34.5 7.5q-54 0 -87.5 -54.5t-33.5 -164.5h-54z" />
    <glyph glyph-name="ograve" unicode="&#xf2;" horiz-adv-x="1167" 
d="M123 496q0 145 56.5 262.5t162.5 186.5t242 69q137 0 243 -69t161.5 -186t55.5 -263t-55.5 -264t-161.5 -187.5t-243 -69.5q-136 0 -242 69.5t-162.5 188t-56.5 263.5zM190 496q0 -123 45 -227.5t136.5 -171t212.5 -66.5q92 0 168 38.5t124.5 103.5t74.5 148t26 175
q0 91 -26 173.5t-74.5 147t-124.5 103t-168 38.5q-121 0 -212.5 -66t-136.5 -170t-45 -226zM268 1434h92l328 -295h-61z" />
    <glyph glyph-name="oacute" unicode="&#xf3;" horiz-adv-x="1167" 
d="M123 496q0 145 56.5 262.5t162.5 186.5t242 69q137 0 243 -69t161.5 -186t55.5 -263t-55.5 -264t-161.5 -187.5t-243 -69.5q-136 0 -242 69.5t-162.5 188t-56.5 263.5zM190 496q0 -123 45 -227.5t136.5 -171t212.5 -66.5q92 0 168 38.5t124.5 103.5t74.5 148t26 175
q0 91 -26 173.5t-74.5 147t-124.5 103t-168 38.5q-121 0 -212.5 -66t-136.5 -170t-45 -226zM479 1139l328 295h92l-358 -295h-62z" />
    <glyph glyph-name="ocircumflex" unicode="&#xf4;" horiz-adv-x="1167" 
d="M123 496q0 145 56.5 262.5t162.5 186.5t242 69q137 0 243 -69t161.5 -186t55.5 -263t-55.5 -264t-161.5 -187.5t-243 -69.5q-136 0 -242 69.5t-162.5 188t-56.5 263.5zM190 496q0 -123 45 -227.5t136.5 -171t212.5 -66.5q92 0 168 38.5t124.5 103.5t74.5 148t26 175
q0 91 -26 173.5t-74.5 147t-124.5 103t-168 38.5q-121 0 -212.5 -66t-136.5 -170t-45 -226zM346 1139l201 295h74l206 -295h-57l-186 245l-181 -245h-57z" />
    <glyph glyph-name="otilde" unicode="&#xf5;" horiz-adv-x="1167" 
d="M123 496q0 145 56.5 262.5t162.5 186.5t242 69q137 0 243 -69t161.5 -186t55.5 -263t-55.5 -264t-161.5 -187.5t-243 -69.5q-136 0 -242 69.5t-162.5 188t-56.5 263.5zM190 496q0 -123 45 -227.5t136.5 -171t212.5 -66.5q92 0 168 38.5t124.5 103.5t74.5 148t26 175
q0 91 -26 173.5t-74.5 147t-124.5 103t-168 38.5q-121 0 -212.5 -66t-136.5 -170t-45 -226zM276 1147q0 116 48.5 195t132.5 79q30 0 53.5 -10t43 -33t29.5 -38.5t27 -47.5q19 -35 30 -52t32.5 -33.5t46.5 -16.5q54 0 87.5 54.5t33.5 164.5h53q0 -116 -48 -195t-132 -79
q-25 0 -46.5 8.5t-35 18.5t-29 31.5t-22.5 33t-21 37.5q-15 27 -22.5 39.5t-21.5 30t-29.5 25t-34.5 7.5q-54 0 -87.5 -54.5t-33.5 -164.5h-54z" />
    <glyph glyph-name="odieresis" unicode="&#xf6;" horiz-adv-x="1167" 
d="M123 496q0 145 56.5 262.5t162.5 186.5t242 69q137 0 243 -69t161.5 -186t55.5 -263t-55.5 -264t-161.5 -187.5t-243 -69.5q-136 0 -242 69.5t-162.5 188t-56.5 263.5zM190 496q0 -123 45 -227.5t136.5 -171t212.5 -66.5q92 0 168 38.5t124.5 103.5t74.5 148t26 175
q0 91 -26 173.5t-74.5 147t-124.5 103t-168 38.5q-121 0 -212.5 -66t-136.5 -170t-45 -226zM319 1225q0 23 17.5 40t40.5 17t40 -17t17 -40t-17 -40.5t-40 -17.5t-40.5 17.5t-17.5 40.5zM733 1225q0 23 17.5 40t40.5 17t40 -17t17 -40t-17 -40.5t-40 -17.5t-40.5 17.5
t-17.5 40.5z" />
    <glyph glyph-name="divide" unicode="&#xf7;" horiz-adv-x="1046" 
d="M59 659v62h928v-62h-928zM457 272q0 28 19.5 48t47.5 20t48 -20t20 -48t-20 -47.5t-48 -19.5t-47.5 19.5t-19.5 47.5zM457 1098q0 28 19.5 46.5t47.5 18.5t48 -19t20 -46q0 -28 -20 -49t-48 -21q-27 0 -47 21t-20 49z" />
    <glyph glyph-name="oslash" unicode="&#xf8;" horiz-adv-x="1167" 
d="M123 496q0 145 56.5 262.5t162.5 186.5t242 69q155 0 272 -90l49 65h68l-76 -102q71 -71 109 -172t38 -219q0 -146 -55.5 -264t-161.5 -187.5t-243 -69.5q-163 0 -285 101l-57 -76h-70l86 115q-135 148 -135 381zM190 496q0 -197 107 -328l522 706q-100 84 -235 84
q-121 0 -212.5 -66t-136.5 -170t-45 -226zM334 125q100 -94 250 -94q92 0 168 38.5t124.5 103.5t74.5 148t26 175q0 98 -30.5 187t-86.5 153z" />
    <glyph glyph-name="ugrave" unicode="&#xf9;" horiz-adv-x="1081" 
d="M176 295v694h62v-694q0 -147 65.5 -205.5t190.5 -58.5q99 0 197.5 52t152.5 128v778h61v-989h-61v152q-68 -76 -164.5 -126.5t-194.5 -50.5q-153 0 -231 75.5t-78 244.5zM225 1434h92l328 -295h-61z" />
    <glyph glyph-name="uacute" unicode="&#xfa;" horiz-adv-x="1081" 
d="M176 295v694h62v-694q0 -147 65.5 -205.5t190.5 -58.5q99 0 197.5 52t152.5 128v778h61v-989h-61v152q-68 -76 -164.5 -126.5t-194.5 -50.5q-153 0 -231 75.5t-78 244.5zM436 1139l328 295h92l-358 -295h-62z" />
    <glyph glyph-name="ucircumflex" unicode="&#xfb;" horiz-adv-x="1081" 
d="M176 295v694h62v-694q0 -147 65.5 -205.5t190.5 -58.5q99 0 197.5 52t152.5 128v778h61v-989h-61v152q-68 -76 -164.5 -126.5t-194.5 -50.5q-153 0 -231 75.5t-78 244.5zM299 1139l201 295h73l207 -295h-57l-186 245l-181 -245h-57z" />
    <glyph glyph-name="udieresis" unicode="&#xfc;" horiz-adv-x="1081" 
d="M176 295v694h62v-694q0 -147 65.5 -205.5t190.5 -58.5q99 0 197.5 52t152.5 128v778h61v-989h-61v152q-68 -76 -164.5 -126.5t-194.5 -50.5q-153 0 -231 75.5t-78 244.5zM285 1225q0 23 17 40t40 17t40 -17t17 -40t-17 -40.5t-40 -17.5t-40 17.5t-17 40.5zM698 1225
q0 23 17.5 40t40.5 17t40 -17t17 -40t-17 -40.5t-40 -17.5t-40.5 17.5t-17.5 40.5z" />
    <glyph glyph-name="yacute" unicode="&#xfd;" horiz-adv-x="964" 
d="M23 989h71l389 -917l387 917h72l-524 -1222q-74 -168 -217 -168q-55 0 -99 14l13 57q37 -16 86 -16q52 0 87 29t68 106l90 205zM379 1139l328 295h92l-359 -295h-61z" />
    <glyph glyph-name="thorn" unicode="&#xfe;" horiz-adv-x="1150" 
d="M176 -377v1743h62v-543q55 82 150 136.5t206 54.5q200 0 321 -141.5t121 -376.5q0 -234 -121.5 -377.5t-320.5 -143.5q-108 0 -201.5 52.5t-154.5 142.5v-547h-62zM238 231q48 -83 147 -141.5t209 -58.5q176 0 275.5 131.5t99.5 333.5t-99.5 332t-275.5 130
q-111 0 -209.5 -57t-146.5 -139v-531z" />
    <glyph glyph-name="ydieresis" unicode="&#xff;" horiz-adv-x="964" 
d="M23 989h71l389 -917l387 917h72l-524 -1222q-74 -168 -217 -168q-55 0 -99 14l13 57q37 -16 86 -16q52 0 87 29t68 106l90 205zM219 1225q0 23 17 40t40 17t40.5 -17t17.5 -40t-17.5 -40.5t-40.5 -17.5t-40 17.5t-17 40.5zM633 1225q0 23 17 40t40 17t40.5 -17t17.5 -40
t-17.5 -40.5t-40.5 -17.5t-40 17.5t-17 40.5z" />
    <glyph glyph-name="OE" unicode="&#x152;" horiz-adv-x="2301" 
d="M133 682q0 147 46 276.5t129 224t205.5 149t268.5 54.5q175 0 323 -88.5t228 -253.5v322h836v-61h-770v-572h755v-61h-755v-611h770v-61h-836v322q-80 -166 -228 -256.5t-323 -90.5q-194 0 -343 94.5t-227.5 254.5t-78.5 358zM205 682q0 -186 69.5 -332t201.5 -229.5
t306 -83.5q191 0 336.5 104t214.5 305v474q-69 200 -214 302.5t-337 102.5q-262 0 -419.5 -179t-157.5 -464z" />
    <glyph glyph-name="oe" unicode="&#x153;" horiz-adv-x="2023" 
d="M123 496q0 145 56.5 262.5t162.5 186.5t242 69q67 0 127 -16.5t103.5 -45t78.5 -63t59 -73.5t38.5 -73t21.5 -65q11 39 31.5 81t57.5 88.5t83.5 82.5t114 60t143.5 24q110 0 199 -42t145 -114.5t85.5 -165t29.5 -196.5v-21h-854q3 -122 53 -222t145 -161t217 -61
q204 0 344 149l37 -39q-79 -82 -170 -124t-211 -42q-82 0 -153 23t-119.5 58t-86.5 81.5t-59 89t-32 84.5q-12 -41 -30.5 -81t-54.5 -88t-81 -83.5t-113.5 -59.5t-148.5 -24q-136 0 -242 69.5t-162.5 188t-56.5 263.5zM190 496q0 -124 45 -228.5t136.5 -171.5t212.5 -67
q92 0 168 39t124.5 104t74.5 148.5t26 175.5q0 91 -26 173.5t-74.5 147t-124.5 103t-168 38.5q-121 0 -212.5 -66t-136.5 -170t-45 -226zM1047 530h788q0 58 -15 117.5t-47 115.5t-77 99t-111.5 69.5t-144.5 26.5q-74 0 -137.5 -26t-109 -68.5t-78.5 -98.5t-49.5 -115.5
t-18.5 -119.5z" />
    <glyph glyph-name="Ydieresis" unicode="&#x178;" horiz-adv-x="1249" 
d="M43 1366h84l498 -709l497 709h84l-549 -774v-592h-65v592zM369 1567q0 23 17 40t40 17t40 -17t17 -40t-17 -40.5t-40 -17.5t-40 17.5t-17 40.5zM782 1567q0 23 17.5 40t40.5 17t40 -17t17 -40t-17 -40.5t-40 -17.5t-40.5 17.5t-17.5 40.5z" />
    <glyph glyph-name="circumflex" unicode="&#x2c6;" horiz-adv-x="481" 
d="M0 1139l201 295h73l207 -295h-57l-186 245l-181 -245h-57z" />
    <glyph glyph-name="tilde" unicode="&#x2dc;" horiz-adv-x="616" 
d="M0 1147q0 116 48 195t132 79q30 0 54 -10.5t43 -32.5t29.5 -38.5t27.5 -47.5q15 -27 22.5 -39.5t21.5 -30t29.5 -25t34.5 -7.5q54 0 87.5 54.5t33.5 164.5h53q0 -116 -48 -195t-132 -79q-31 0 -54.5 10t-43 33.5t-28.5 38t-27 47.5q-19 35 -30 52t-32.5 33.5t-46.5 16.5
q-54 0 -87.5 -54.5t-33.5 -164.5h-53z" />
    <glyph glyph-name="uni2000" unicode="&#x2000;" horiz-adv-x="899" 
 />
    <glyph glyph-name="uni2001" unicode="&#x2001;" horiz-adv-x="1798" 
 />
    <glyph glyph-name="uni2002" unicode="&#x2002;" horiz-adv-x="899" 
 />
    <glyph glyph-name="uni2003" unicode="&#x2003;" horiz-adv-x="1798" 
 />
    <glyph glyph-name="uni2004" unicode="&#x2004;" horiz-adv-x="599" 
 />
    <glyph glyph-name="uni2005" unicode="&#x2005;" horiz-adv-x="449" 
 />
    <glyph glyph-name="uni2006" unicode="&#x2006;" horiz-adv-x="299" 
 />
    <glyph glyph-name="uni2007" unicode="&#x2007;" horiz-adv-x="299" 
 />
    <glyph glyph-name="uni2008" unicode="&#x2008;" horiz-adv-x="224" 
 />
    <glyph glyph-name="uni2009" unicode="&#x2009;" horiz-adv-x="359" 
 />
    <glyph glyph-name="uni200A" unicode="&#x200a;" horiz-adv-x="99" 
 />
    <glyph glyph-name="uni2010" unicode="&#x2010;" horiz-adv-x="614" 
d="M61 465v61h492v-61h-492z" />
    <glyph glyph-name="uni2011" unicode="&#x2011;" horiz-adv-x="614" 
d="M61 465v61h492v-61h-492z" />
    <glyph glyph-name="figuredash" unicode="&#x2012;" horiz-adv-x="614" 
d="M61 465v61h492v-61h-492z" />
    <glyph glyph-name="endash" unicode="&#x2013;" horiz-adv-x="1214" 
d="M61 465v61h1092v-61h-1092z" />
    <glyph glyph-name="emdash" unicode="&#x2014;" horiz-adv-x="1705" 
d="M61 465v61h1584v-61h-1584z" />
    <glyph glyph-name="quoteleft" unicode="&#x2018;" 
d="M113 1139q0 73 37 141.5t90 105.5l45 -36q-49 -36 -79 -89t-30 -100q13 2 17 2q29 0 47 -19.5t18 -47.5q0 -27 -18.5 -46.5t-46.5 -19.5q-34 0 -57 29t-23 80z" />
    <glyph glyph-name="quoteright" unicode="&#x2019;" 
d="M119 1067q49 36 78.5 88.5t29.5 99.5q-12 -2 -16 -2q-29 0 -47.5 20t-18.5 48q0 27 18.5 46t47.5 19q34 0 57 -29t23 -79q0 -73 -37.5 -142t-89.5 -106z" />
    <glyph glyph-name="quotesinglbase" unicode="&#x201a;" 
d="M119 -205q49 36 78.5 89t29.5 100q-12 -2 -16 -2q-29 0 -47.5 19.5t-18.5 47.5q0 27 18.5 46.5t47.5 19.5q34 0 57 -29t23 -80q0 -73 -37.5 -142t-89.5 -106z" />
    <glyph glyph-name="quotedblleft" unicode="&#x201c;" horiz-adv-x="677" 
d="M135 1139q0 73 37 141.5t90 105.5l45 -36q-49 -36 -78.5 -89t-29.5 -100q12 2 16 2q29 0 47.5 -19.5t18.5 -47.5q0 -27 -18.5 -46.5t-47.5 -19.5q-34 0 -57 29t-23 80zM387 1139q0 73 37 141.5t90 105.5l45 -36q-49 -36 -78.5 -89t-29.5 -100q12 2 16 2q29 0 47 -19.5
t18 -47.5q0 -27 -18.5 -46.5t-46.5 -19.5q-34 0 -57 29t-23 80z" />
    <glyph glyph-name="quotedblright" unicode="&#x201d;" horiz-adv-x="677" 
d="M119 1067q49 36 78.5 88.5t29.5 99.5q-12 -2 -16 -2q-29 0 -47.5 20t-18.5 48q0 27 18.5 46t47.5 19q34 0 57 -29t23 -79q0 -73 -37.5 -142t-89.5 -106zM371 1067q49 36 78.5 88.5t29.5 99.5q-12 -2 -16 -2q-29 0 -47.5 20t-18.5 48q0 27 18.5 46t47.5 19q34 0 57 -29
t23 -79q0 -73 -37.5 -142t-89.5 -106z" />
    <glyph glyph-name="quotedblbase" unicode="&#x201e;" horiz-adv-x="677" 
d="M119 -205q49 36 78.5 89t29.5 100q-12 -2 -16 -2q-29 0 -47.5 19.5t-18.5 47.5q0 27 18.5 46.5t47.5 19.5q34 0 57 -29t23 -80q0 -73 -37.5 -142t-89.5 -106zM371 -205q49 36 78.5 89t29.5 100q-12 -2 -16 -2q-29 0 -47.5 19.5t-18.5 47.5q0 27 18.5 46.5t47.5 19.5
q34 0 57 -29t23 -80q0 -73 -37.5 -142t-89.5 -106z" />
    <glyph glyph-name="bullet" unicode="&#x2022;" horiz-adv-x="733" 
d="M168 496q0 83 59 141.5t142 58.5t141.5 -58.5t58.5 -141.5q0 -82 -58.5 -140.5t-141.5 -58.5t-142 58.5t-59 140.5z" />
    <glyph glyph-name="ellipsis" unicode="&#x2026;" horiz-adv-x="1277" 
d="M145 49q0 26 20 46t48 20t48 -20t20 -46q0 -28 -20 -47.5t-48 -19.5t-48 19.5t-20 47.5zM571 49q0 26 20 46t48 20t48 -20t20 -46q0 -28 -20 -47.5t-48 -19.5t-48 19.5t-20 47.5zM997 49q0 26 20 46t48 20t48 -20t20 -46q0 -28 -20 -47.5t-48 -19.5t-48 19.5t-20 47.5z
" />
    <glyph glyph-name="uni202F" unicode="&#x202f;" horiz-adv-x="359" 
 />
    <glyph glyph-name="guilsinglleft" unicode="&#x2039;" horiz-adv-x="530" 
d="M61 498l328 362h80l-328 -362l328 -369h-80z" />
    <glyph glyph-name="guilsinglright" unicode="&#x203a;" horiz-adv-x="530" 
d="M61 129l328 369l-328 362h80l328 -362l-328 -369h-80z" />
    <glyph glyph-name="uni205F" unicode="&#x205f;" horiz-adv-x="449" 
 />
    <glyph glyph-name="Euro" unicode="&#x20ac;" horiz-adv-x="1400" 
d="M80 506v61h102q-8 49 -8 115q0 41 8 119h-102v61h113q55 238 238 382.5t425 144.5q288 0 475 -215l-51 -46q-73 92 -185.5 145.5t-238.5 53.5q-216 0 -377 -126.5t-213 -338.5h713v-61h-725q-8 -52 -8 -119q0 -41 8 -115h725v-61h-713q51 -213 212.5 -341t377.5 -128
q126 0 238.5 53.5t185.5 145.5l53 -43q-194 -218 -477 -218q-244 0 -426.5 145.5t-236.5 385.5h-113z" />
    <glyph glyph-name="trademark" unicode="&#x2122;" horiz-adv-x="929" 
d="M35 1313v53h311v-53h-127v-398h-57v398h-127zM420 915v451h88l131 -328l131 328h88v-451h-57v373l-154 -373h-16l-154 373v-373h-57z" />
    <glyph glyph-name="uni25FC" unicode="&#x25fc;" horiz-adv-x="993" 
d="M0 0v993h993v-993h-993z" />
    </font>
</defs>
</svg>
